<svg id="Layer_1" data-name="Layer 1" xmlns="http://www.w3.org/2000/svg" viewBox="0 0 100 60"><defs><style>.cls-1{fill:#b32725;fill-rule:evenodd;}.cls-2{fill:#b22825;}</style></defs><title>Arcadia-logo</title><path class="cls-1" d="M34.44,13.84a14.18,14.18,0,0,0,1.69,5.35,11.79,11.79,0,0,0,.93,1.36,3.65,3.65,0,0,0,.39.46,22.68,22.68,0,0,1-1.51-5.18,15.47,15.47,0,0,1-.1-4.15,11.59,11.59,0,0,1,.8-3.15,10.61,10.61,0,0,1,1.18-2.2,10.67,10.67,0,0,1,1-1.18c.39-.37.77-.7,1.16-1s.76-.57,1.09-.81A15.44,15.44,0,0,0,39,6.92a12.59,12.59,0,0,0-.85,3.29,12.17,12.17,0,0,0,0,2.84,11.72,11.72,0,0,0,.48,2.22,12.94,12.94,0,0,0,.57,1.45,3.3,3.3,0,0,0,.29.51,20,20,0,0,1-.21-5.69A12.63,12.63,0,0,1,40.5,7.33a10.68,10.68,0,0,1,2.12-2.95,11.75,11.75,0,0,1,2.57-1.9,13.43,13.43,0,0,1,2.56-1,11,11,0,0,1,2.08-.39,8.51,8.51,0,0,1,2.77.12A11.36,11.36,0,0,1,55.05,2,14.3,14.3,0,0,1,57,3.07,13.75,13.75,0,0,1,58.27,4c.3.26.46.4.47.42a9.44,9.44,0,0,1,1.55,1.9,9.75,9.75,0,0,1,1.05,2.35,9.23,9.23,0,0,1,.42,2.52,6.5,6.5,0,0,1-.43,2.4l-.17.32a8.65,8.65,0,0,0-.57-2.87A7.88,7.88,0,0,0,59.41,9a8.11,8.11,0,0,0-1.36-1.34,7.81,7.81,0,0,0-1.13-.74l-.47-.23a10.84,10.84,0,0,1,2,2.8,8.35,8.35,0,0,1,.77,2.63,7,7,0,0,1-.13,2.31,7.44,7.44,0,0,1-.66,1.87,6.13,6.13,0,0,1-.87,1.25l-.24.14-.24.11A8.64,8.64,0,0,0,57.86,15a6.9,6.9,0,0,0-.13-2.27A6.81,6.81,0,0,0,56.39,10l-.33-.37A10.23,10.23,0,0,1,57,12.24a5.8,5.8,0,0,1,0,2,5.26,5.26,0,0,1-.44,1.51,3.25,3.25,0,0,1-1.2,1.38,5.08,5.08,0,0,1-1.65.65,7.34,7.34,0,0,1-1.56.13,2.85,2.85,0,0,1-1-.14l-.05,0a5.44,5.44,0,0,0,1.73-.44,4.81,4.81,0,0,0,1.44-1,4.36,4.36,0,0,0,1-1.5,4.54,4.54,0,0,0,.26-2.51A5.11,5.11,0,0,0,54.46,10a5.82,5.82,0,0,0-2.11-1.62A5,5,0,0,0,50.28,8a4.45,4.45,0,0,0-1.7.35A5.65,5.65,0,0,0,47.31,9a5.52,5.52,0,0,0-.8.74,2.6,2.6,0,0,1-.29.3A9.61,9.61,0,0,0,44.34,14,8.18,8.18,0,0,0,44.49,18a9.4,9.4,0,0,0,2,3.53A11.6,11.6,0,0,0,49.69,24a11.47,11.47,0,0,0,3.87,1.2A11.28,11.28,0,0,0,57.64,25a11.4,11.4,0,0,0,3.92-1.84,12.57,12.57,0,0,0,2.06-1.91c0,.16-.11.32-.16.48a14.4,14.4,0,0,1-2.45,4,14.57,14.57,0,0,1-3.5,3,15.08,15.08,0,0,1-4.23,1.73,15.44,15.44,0,0,1-16.93-7.16,14.83,14.83,0,0,1-1.74-4.54,14.31,14.31,0,0,1-.17-4.89"/><path d="M33.93,36.65l1.53,3h-3l1.51-3Zm-3.66,7.2,1.78-3.46H35.8l1.75,3.46.72-.22L34,35.09l-4.41,8.56.71.2Zm9-.08V41.46A4.72,4.72,0,0,1,39.8,39a1.88,1.88,0,0,1,1.54-.91l.28-.68h-.17a2.18,2.18,0,0,0-1.24.36,2.82,2.82,0,0,0-.91,1.08V37.56l-.68.09v6.2l.68-.08Zm7.45-1.16a4,4,0,0,1-.92.47,2.73,2.73,0,0,1-.91.16,2.48,2.48,0,0,1-1.8-.74,2.54,2.54,0,0,1,1.8-4.33,2.76,2.76,0,0,1,.91.15,3.61,3.61,0,0,1,.88.44l.46-.55a3.63,3.63,0,0,0-1.06-.53,4.07,4.07,0,0,0-1.19-.17,3.17,3.17,0,0,0-2.32.92,3.26,3.26,0,0,0,0,4.56,3.17,3.17,0,0,0,2.32.93,3.8,3.8,0,0,0,1.18-.2,4.2,4.2,0,0,0,1.1-.55l-.45-.56ZM49,40.53a1.58,1.58,0,0,1,1.17-.45,1.51,1.51,0,0,1,1.12.44,1.58,1.58,0,0,1,.43,1.15,1.54,1.54,0,0,1-.43,1.14,1.48,1.48,0,0,1-1.13.44A1.58,1.58,0,0,1,49,42.8a1.63,1.63,0,0,1,0-2.27Zm2.72,3.39.69-.15V39.43A2,2,0,0,0,51.92,38a2,2,0,0,0-1.46-.47,5,5,0,0,0-.84.08,5,5,0,0,0-.88.24l-.27.79a7.39,7.39,0,0,1,1.06-.36,3.34,3.34,0,0,1,.85-.12,1.44,1.44,0,0,1,1,.31,1.24,1.24,0,0,1,.32.94v.77a2.21,2.21,0,0,0-1.65-.71,2.25,2.25,0,0,0,0,4.5,2.2,2.2,0,0,0,.9-.19,2.27,2.27,0,0,0,.75-.57v.76Zm3.08-5a2.53,2.53,0,1,1,1.8,4.32,2.48,2.48,0,0,1-1.8-.74,2.51,2.51,0,0,1,0-3.58Zm4.33,4.93.67-.08V35.09l-.67.08v3.71a2.93,2.93,0,0,0-2.53-1.37,3.17,3.17,0,0,0-2.32.92,3.26,3.26,0,0,0,0,4.56,3.17,3.17,0,0,0,2.32.93,2.94,2.94,0,0,0,1.4-.35,3.37,3.37,0,0,0,1.13-1v1.29Zm2.36-7.57.53-.63-.53-.56-.52.63.52.56Zm.36,7.49V37.56l-.7.09v6.21l.7-.09ZM64,40.53a1.61,1.61,0,0,1,1.17-.45,1.5,1.5,0,0,1,1.12.44,1.58,1.58,0,0,1,.43,1.15,1.54,1.54,0,0,1-.43,1.14,1.47,1.47,0,0,1-1.13.44A1.59,1.59,0,0,1,64,42.8a1.63,1.63,0,0,1,0-2.27Zm2.72,3.39.69-.15V39.43A2,2,0,0,0,66.93,38a2,2,0,0,0-1.47-.47,4.76,4.76,0,0,0-.83.08,5.13,5.13,0,0,0-.89.24l-.27.79a7.39,7.39,0,0,1,1.06-.36,3.42,3.42,0,0,1,.86-.12,1.4,1.4,0,0,1,1,.31,1.24,1.24,0,0,1,.32.94v.77A2.09,2.09,0,0,0,66,39.6a2.25,2.25,0,0,0-.89-.18,2.25,2.25,0,0,0-2.25,2.25,2.2,2.2,0,0,0,.65,1.59,2.17,2.17,0,0,0,1.6.66,2.27,2.27,0,0,0,.9-.19,2.34,2.34,0,0,0,.74-.57v.76Z"/><path class="cls-2" d="M13,54.07a4.09,4.09,0,0,0,.1,1.07,1.64,1.64,0,0,0,.33.61,1.68,1.68,0,0,0,.69.44,2.75,2.75,0,0,0,1.85,0,1.64,1.64,0,0,0,.68-.44,1.59,1.59,0,0,0,.35-.62,4.06,4.06,0,0,0,.1-1.06V50.26l-.54.08v3.72a2.1,2.1,0,0,1-.35,1.38,1.5,1.5,0,0,1-1.17.4,1.49,1.49,0,0,1-1.16-.4,2.12,2.12,0,0,1-.35-1.38v-3.8l-.53.08v3.73Zm5.49,2.16V53.55a1.3,1.3,0,0,1,.38-.93,1.27,1.27,0,0,1,.9-.38,1,1,0,0,1,.86.37,1.83,1.83,0,0,1,.29,1.12v2.56l.47-.06V53.49A1.74,1.74,0,0,0,21,52.27a1.41,1.41,0,0,0-1.1-.44,1.63,1.63,0,0,0-.79.2,1.82,1.82,0,0,0-.62.59v-.73L18,52v4.34l.48-.06ZM23,52.83a1.74,1.74,0,0,1,1.26-.51,1.76,1.76,0,0,1,1.77,1.77,1.78,1.78,0,0,1-1.77,1.77A1.71,1.71,0,0,1,23,55.34a1.68,1.68,0,0,1-.52-1.25A1.71,1.71,0,0,1,23,52.83Zm3,3.46.47-.06V50.16l-.47.06v2.59a2.14,2.14,0,0,0-.76-.71,2,2,0,0,0-1-.25,2.23,2.23,0,0,0-1.62.64,2.13,2.13,0,0,0-.65,1.6,2.19,2.19,0,0,0,.65,1.6,2.23,2.23,0,0,0,1.62.65,2.07,2.07,0,0,0,1-.25,2.29,2.29,0,0,0,.79-.7v.9Zm1.65-2v-.2a1.74,1.74,0,0,1,1.76-1.76,1.57,1.57,0,0,1,.63.12,1.15,1.15,0,0,1,.45.33l-2.83,1.69c0-.06,0-.12,0-.18Zm3.46.83a4.51,4.51,0,0,1-.89.56,2.14,2.14,0,0,1-.81.17,1.7,1.7,0,0,1-.92-.26,1.68,1.68,0,0,1-.66-.71l3.37-2a1.77,1.77,0,0,0-.72-.76,2,2,0,0,0-1.07-.27,2.23,2.23,0,0,0-1.62.64,2.13,2.13,0,0,0-.65,1.6,2.16,2.16,0,0,0,.64,1.6,2.24,2.24,0,0,0,1.63.65,2.51,2.51,0,0,0,.86-.15,3.23,3.23,0,0,0,.84-.47v-.61Zm1.16,1.12V54.61a3.2,3.2,0,0,1,.35-1.69,1.34,1.34,0,0,1,1.08-.64l.19-.47h-.12a1.51,1.51,0,0,0-.87.25,1.93,1.93,0,0,0-.63.76v-.93l-.48.06v4.34l.48-.06Z"/><path class="cls-2" d="M37.38,52.89,39,56.33,40.91,52l-.44-.15L39,55.16l-1.57-3.33-1.57,3.34-1.42-3.34-.48.17,1.86,4.33,1.58-3.44Zm4.34,3.34V54.61a3.3,3.3,0,0,1,.35-1.69,1.34,1.34,0,0,1,1.08-.64l.2-.47h-.12a1.51,1.51,0,0,0-.87.25,2,2,0,0,0-.64.76v-.93l-.48.06v4.34l.48-.06ZM43.9,51l.37-.44-.37-.39-.37.44.37.39Zm.25,5.24V51.89l-.49.06V56.3l.49-.07Zm2.79-.47-.24,0h-.19a.64.64,0,0,1-.57-.23,1.71,1.71,0,0,1-.16-.92V52.41H46.9V52H45.78V50.64l-.48.29v1h-.48l-.14.46h.62v2.2a2.32,2.32,0,0,0,.27,1.32,1.06,1.06,0,0,0,.91.36h.22l.24-.05v-.47ZM47.72,51l.37-.44-.37-.39-.36.44.36.39ZM48,56.23V51.89l-.49.06V56.3l.49-.07Zm1.42,0V53.55a1.3,1.3,0,0,1,.38-.93,1.27,1.27,0,0,1,.9-.38,1,1,0,0,1,.86.37,1.83,1.83,0,0,1,.29,1.12v2.56l.47-.06V53.49a1.74,1.74,0,0,0-.39-1.22,1.43,1.43,0,0,0-1.11-.44A1.59,1.59,0,0,0,50,52a1.82,1.82,0,0,0-.62.59v-.73l-.48.06v4.34l.48-.06Zm4.42-3.61a1.51,1.51,0,0,1,1.83,0,1,1,0,0,1,.38.76,1.07,1.07,0,0,1-.37.81,1.37,1.37,0,0,1-.92.32,1.36,1.36,0,0,1-.93-.33,1,1,0,0,1-.37-.8.93.93,0,0,1,.38-.76Zm2.46,1.57a1.44,1.44,0,0,0,.25-.81,1.32,1.32,0,0,0-.19-.69,1.45,1.45,0,0,0-.53-.51h.1l.38.05a.31.31,0,0,0,.19-.05.31.31,0,0,0,.12-.19l.11-.33a7.92,7.92,0,0,1-.8.18,3.37,3.37,0,0,1-.52,0h-.17l-.28,0h-.25a1.87,1.87,0,0,0-1.25.44,1.44,1.44,0,0,0-.29,1.84,1.71,1.71,0,0,0,.6.56l-.21.54a3.08,3.08,0,0,1,.58-.2,1.91,1.91,0,0,1,.52-.07,1.51,1.51,0,0,1,1,.36,1.11,1.11,0,0,1,.43.89,1,1,0,0,1-.43.83,1.55,1.55,0,0,1-1,.34,1.66,1.66,0,0,1-.85-.22,2,2,0,0,1-.65-.64l-.44.28a2.32,2.32,0,0,0,.84.78,2.14,2.14,0,0,0,1.1.28A2,2,0,0,0,56,57.38a1.48,1.48,0,0,0,.56-1.17,1.44,1.44,0,0,0-.27-.86,1.71,1.71,0,0,0-.74-.6,1.72,1.72,0,0,0,.7-.56ZM62,51.25l1.07,2.12H61L62,51.25Zm-2.56,5,1.24-2.42h2.63l1.22,2.42.51-.16-3-6-3.09,6,.5.14Zm6.48-3.67a1.52,1.52,0,0,1,1.84,0,1,1,0,0,1,.37.76,1,1,0,0,1-.37.81,1.36,1.36,0,0,1-.92.32,1.31,1.31,0,0,1-.92-.33,1,1,0,0,1-.38-.8,1,1,0,0,1,.38-.76Zm2.47,1.57a1.43,1.43,0,0,0,.24-.81,1.31,1.31,0,0,0-.18-.69,1.4,1.4,0,0,0-.54-.51H68l.39.05a.33.33,0,0,0,.19-.05.36.36,0,0,0,.11-.19l.11-.33a7.84,7.84,0,0,1-.79.18,3.49,3.49,0,0,1-.52,0h-.17l-.29,0h-.24a1.85,1.85,0,0,0-1.25.44,1.4,1.4,0,0,0-.51,1.09,1.42,1.42,0,0,0,.21.75,1.66,1.66,0,0,0,.61.56l-.21.54a3,3,0,0,1,.57-.2,2,2,0,0,1,.52-.07,1.54,1.54,0,0,1,1,.36,1.14,1.14,0,0,1,.43.89,1.06,1.06,0,0,1-.43.83,1.58,1.58,0,0,1-1,.34,1.6,1.6,0,0,1-.84-.22,1.92,1.92,0,0,1-.66-.64l-.44.28a2.4,2.4,0,0,0,.84.78,2.17,2.17,0,0,0,1.1.28,2.07,2.07,0,0,0,1.4-.48,1.47,1.47,0,0,0,.55-1.17,1.43,1.43,0,0,0-.26-.86,1.77,1.77,0,0,0-.74-.6,1.79,1.79,0,0,0,.7-.56Zm1.37.09v-.2a1.74,1.74,0,0,1,1.76-1.76,1.54,1.54,0,0,1,.63.12,1.18,1.18,0,0,1,.46.33l-2.84,1.69c0-.06,0-.12,0-.18Zm3.46.83a4.51,4.51,0,0,1-.89.56,2.14,2.14,0,0,1-.81.17,1.7,1.7,0,0,1-.92-.26,1.66,1.66,0,0,1-.65-.71l3.36-2a1.8,1.8,0,0,0-.71-.76,2.11,2.11,0,0,0-1.08-.27,2.25,2.25,0,0,0-1.62.64,2.29,2.29,0,0,0,0,3.2,2.2,2.2,0,0,0,1.62.65,2.47,2.47,0,0,0,.86-.15,3.23,3.23,0,0,0,.84-.47v-.61Zm1.13,1.12V53.55a1.27,1.27,0,0,1,.39-.93,1.23,1.23,0,0,1,.89-.38,1,1,0,0,1,.86.37,1.76,1.76,0,0,1,.29,1.12v2.56l.47-.06V53.49a1.74,1.74,0,0,0-.39-1.22,1.41,1.41,0,0,0-1.1-.44A1.56,1.56,0,0,0,75,52a1.84,1.84,0,0,0-.63.59v-.73l-.48.06v4.34l.48-.06Zm7.1-.81a2.78,2.78,0,0,1-.64.33,2.1,2.1,0,0,1-.64.11,1.77,1.77,0,1,1,0-3.54,2.2,2.2,0,0,1,.64.09,2.45,2.45,0,0,1,.62.32l.32-.39A2.7,2.7,0,0,0,81,52a2.75,2.75,0,0,0-.84-.12,2.25,2.25,0,0,0-1.62.64,2.29,2.29,0,0,0,0,3.2,2.23,2.23,0,0,0,1.62.65A2.68,2.68,0,0,0,81,56.2a2.94,2.94,0,0,0,.77-.39l-.32-.39Z"/><polygon class="cls-2" points="85.98 51.98 85.52 51.85 83.97 54.99 82.23 51.85 81.76 51.99 83.71 55.5 82.62 57.68 83.1 57.81 85.98 51.98 85.98 51.98"/></svg>