<svg id="Layer_1" data-name="Layer 1" xmlns="http://www.w3.org/2000/svg" viewBox="0 0 100 60"><defs><style>.cls-1{fill:#00543d;}</style></defs><title>CHU-logo</title><path class="cls-1" d="M40.32,46.6a11.52,11.52,0,0,0-4.7-1c-4,0-6.84,2.4-6.84,5.64,0,3,2.4,5.52,6.65,5.52a9.31,9.31,0,0,0,5.32-1.57l-.14,2.24A13.6,13.6,0,0,1,35,58.5c-7,0-9.06-4.46-9.06-7.07,0-3.88,4.05-7.71,10.53-7.71a12.82,12.82,0,0,1,3.88.56V46.6Z"/><path class="cls-1" d="M46.54,43.89a7.47,7.47,0,0,0-.45,3.27V50h7.58V47.52a9.46,9.46,0,0,0-.43-3.63h3.52c-.4.93-.42,1.62-.42,3.8v6.59c0,2.35,0,3.06.42,3.89H53.24c.38-.87.43-1.54.43-3.81V51.85H46.09V54.2a11,11,0,0,0,.4,4H43a8.79,8.79,0,0,0,.43-3.66V47.56A9.5,9.5,0,0,0,43,43.89Z"/><path class="cls-1" d="M62.82,43.88c-.4.95-.31,1.47-.31,3.46v5.24a3.36,3.36,0,0,0,.25,1.75,4.43,4.43,0,0,0,4,2.48,4.74,4.74,0,0,0,4.31-2.51,3.92,3.92,0,0,0,.15-1.44V47.19a9.1,9.1,0,0,0-.39-3.31h3.3c-.29.62-.22,1.06-.22,2.94v6c0,3.33-3.18,5.59-7.19,5.59-3.69,0-6.89-2.23-6.88-5.58V47.19c0-2.19,0-2.69-.31-3.31Z"/><path class="cls-1" d="M50.14,35.72,24.29,22.36,50.14,9.07,76,22.36ZM28.72,22.37,50.14,33.44,71.57,22.37l-21.43-11Z"/><path class="cls-1" d="M69.64,1C40.41,2.56-3.36,13.37,59,22.37,18.48,13.4,48.93,4.87,69.64,1Z"/></svg>