<svg id="Layer_1" data-name="Layer 1" xmlns="http://www.w3.org/2000/svg" viewBox="0 0 100 60"><defs><style>.cls-1{fill:#231f20;}.cls-1,.cls-2{fill-rule:evenodd;}.cls-2{fill:#00aeef;}</style></defs><title>QBE-logo</title><path class="cls-1" d="M39.94,53.87a11.14,11.14,0,0,0-3.32-2.16A9.2,9.2,0,0,0,33,51,6.8,6.8,0,0,0,32,51a5.17,5.17,0,0,0-1,.23,7.55,7.55,0,0,0,2.65,2.39,7,7,0,0,0,3.4.85,6.55,6.55,0,0,0,1.37-.16,8.27,8.27,0,0,0,1.49-.48Zm2.22-1.64a7.61,7.61,0,0,0,2.09-5.47,7.21,7.21,0,0,0-.51-2.68,7.43,7.43,0,0,0-1.47-2.31A7.59,7.59,0,0,0,39.83,40a7.07,7.07,0,0,0-2.91-.59,6.9,6.9,0,0,0-2.71.54,6.82,6.82,0,0,0-2.28,1.56A7.73,7.73,0,0,0,30.27,44a7.84,7.84,0,0,0-.57,3,7.06,7.06,0,0,0,.08,1A8.46,8.46,0,0,0,30,49a5.24,5.24,0,0,1,1.46-.5,9.31,9.31,0,0,1,1.85-.16,11.27,11.27,0,0,1,4.53,1,15.92,15.92,0,0,1,4.31,2.86Zm.39,3.52A10.51,10.51,0,0,1,39.89,57a10.24,10.24,0,0,1-2.94.41,10.49,10.49,0,0,1-3.4-.56,10.13,10.13,0,0,1-3-1.65,10.31,10.31,0,0,1-2.88-3.68,11,11,0,0,1-1-4.71,10.19,10.19,0,0,1,.8-4,10.92,10.92,0,0,1,2.35-3.44,10.09,10.09,0,0,1,3.26-2.18A9.82,9.82,0,0,1,37,36.44a9.93,9.93,0,0,1,7.21,2.94,10.26,10.26,0,0,1,2.33,3.46,11.06,11.06,0,0,1,.79,4.2,10.33,10.33,0,0,1-.63,3.65,10,10,0,0,1-1.89,3.13,5.48,5.48,0,0,0,1.1.37,5.94,5.94,0,0,0,1.22.12h.37v2.82h-.26a8,8,0,0,1-2.28-.35,11.14,11.14,0,0,1-2.36-1Z"/><path class="cls-1" d="M52.05,45.29H53a5.83,5.83,0,0,0,3.26-.69,2.64,2.64,0,0,0,1-2.29,2.48,2.48,0,0,0-.89-2.1,4.39,4.39,0,0,0-2.7-.68H52.05v5.76Zm0,9.07h2.33a4.83,4.83,0,0,0,3-.76,2.81,2.81,0,0,0,1-2.35,3.34,3.34,0,0,0-1-2.63,4.27,4.27,0,0,0-2.95-.89H52v6.63Zm1.48-17.6a7.47,7.47,0,0,1,5,1.43,5.1,5.1,0,0,1,1.69,4.15A4.21,4.21,0,0,1,58,46.16a4.24,4.24,0,0,1,2.36,1.72,5.24,5.24,0,0,1,.87,3,6.89,6.89,0,0,1-.53,2.68,5.35,5.35,0,0,1-3.56,3.2,12.74,12.74,0,0,1-3.29.33h-4.7V36.76Z"/><polygon class="cls-1" points="73.06 57.12 62.49 57.12 62.49 36.76 73.06 36.76 73.06 39.48 65.44 39.48 65.44 45.56 73.06 45.56 73.06 48.21 65.44 48.21 65.44 54.31 73.06 54.31 73.06 57.12 73.06 57.12"/><path class="cls-2" d="M58.52,23.55a3.17,3.17,0,0,0,2.7-4.78L54.74,7.56a7.58,7.58,0,0,0-3.32-5.2,6.45,6.45,0,0,1,6.79,3.11l6.62,11.47a6.45,6.45,0,0,1-11.08,6.61Z"/><path class="cls-2" d="M58.5,18.37H50.42l-2.33,4H58.5a2,2,0,1,0,0-4Z"/><path class="cls-2" d="M50.54,7.63a3.18,3.18,0,0,0-1.91-1.46,3.18,3.18,0,0,0-3.58,1.51L38.58,18.9a7.56,7.56,0,0,0-2.84,5.47,6.44,6.44,0,0,1-.7-7.43L41.66,5.47a6.45,6.45,0,0,1,11.26,6.29L50.54,7.63Z"/><path class="cls-2" d="M46.06,10.23l4,7h4.66l-5.2-9a2,2,0,1,0-3.5,2Z"/><path class="cls-2" d="M40.74,22.5a3.15,3.15,0,0,0-.3,2.39,3.18,3.18,0,0,0,3.09,2.34H56.48A7.61,7.61,0,0,0,62.65,27a6.48,6.48,0,0,1-6.09,4.32H43.31a6.45,6.45,0,0,1-.18-12.9L40.74,22.5Z"/><path class="cls-2" d="M45.24,25.08l4-7L47,14l-5.21,9a2,2,0,1,0,3.5,2Z"/></svg>