<?xml version="1.0" encoding="utf-8"?>
<!-- Generator: Adobe Illustrator 20.0.0, SVG Export Plug-In . SVG Version: 6.00 Build 0)  -->
<!DOCTYPE svg PUBLIC "-//W3C//DTD SVG 1.1//EN" "http://www.w3.org/Graphics/SVG/1.1/DTD/svg11.dtd">
<svg version="1.1" id="Layer_4" xmlns="http://www.w3.org/2000/svg" xmlns:xlink="http://www.w3.org/1999/xlink" x="0px" y="0px"
	 viewBox="0 0 13.1 10.7" style="enable-background:new 0 0 13.1 10.7;" xml:space="preserve">
<style type="text/css">
	.st0{fill:#60A5AA;}
</style>
<g>
	<path class="st0" d="M10.3,6.3c0,0.2-0.1,0.4-0.2,0.6l-3.3,3.3c-0.2,0.2-0.4,0.2-0.6,0.2c-0.2,0-0.4-0.1-0.6-0.2L0.8,5.4
		C0.6,5.2,0.5,5,0.4,4.7C0.3,4.4,0.2,4.1,0.2,3.9V1.1c0-0.2,0.1-0.4,0.3-0.6s0.4-0.3,0.6-0.3h2.8c0.2,0,0.5,0.1,0.8,0.2
		s0.5,0.3,0.7,0.4l4.8,4.8C10.3,5.8,10.3,6,10.3,6.3z M3,3c0.2-0.2,0.3-0.4,0.3-0.6C3.2,2.2,3.1,2,3,1.8C2.8,1.6,2.6,1.5,2.3,1.5
		c-0.2,0-0.4,0.1-0.6,0.3C1.6,2,1.5,2.2,1.5,2.4c0,0.2,0.1,0.4,0.3,0.6c0.2,0.2,0.4,0.3,0.6,0.3C2.6,3.3,2.8,3.2,3,3z M12.9,6.3
		c0,0.2-0.1,0.4-0.2,0.6l-3.3,3.3c-0.2,0.2-0.4,0.2-0.6,0.2c-0.2,0-0.3,0-0.4-0.1S8.2,10.1,8,10l3.1-3.1c0.2-0.2,0.2-0.4,0.2-0.6
		c0-0.2-0.1-0.4-0.2-0.6L6.4,0.9C6.2,0.7,6,0.6,5.7,0.4S5.2,0.3,4.9,0.3h1.5c0.2,0,0.5,0.1,0.8,0.2s0.5,0.3,0.7,0.4l4.8,4.8
		C12.8,5.8,12.9,6,12.9,6.3z"/>
</g>
</svg>
