<?xml version="1.0" encoding="utf-8"?>
<!-- Generator: Adobe Illustrator 20.0.0, SVG Export Plug-In . SVG Version: 6.00 Build 0)  -->
<!DOCTYPE svg PUBLIC "-//W3C//DTD SVG 1.1//EN" "http://www.w3.org/Graphics/SVG/1.1/DTD/svg11.dtd">
<svg version="1.1" id="Layer_1" xmlns="http://www.w3.org/2000/svg" xmlns:xlink="http://www.w3.org/1999/xlink" x="0px" y="0px"
	 viewBox="0 0 99.5 112" style="enable-background:new 0 0 99.5 112;" xml:space="preserve">
<style type="text/css">
	.st0{fill:#F7F9FA;stroke:#3A3D42;stroke-width:1.5;stroke-miterlimit:10;}
	.st1{fill:#F58021;stroke:#3A3D42;stroke-width:1.5;stroke-miterlimit:10;}
	.st2{fill:#F58021;stroke:#FFFFFF;stroke-width:1.5;stroke-miterlimit:10;}
	.st3{fill:none;stroke:#FFFFFF;stroke-width:1.5;stroke-miterlimit:10;}
	.st4{fill:none;stroke:#FFFFFF;stroke-miterlimit:10;}
	.st5{fill:#F5CEAF;}
	.st6{fill:#393C41;stroke:#393C41;stroke-miterlimit:10;}
	.st7{fill:#F58021;}
</style>
<g>
	<path class="st0" d="M90.6,33.1c-2.3,0-4.1,1.8-4.1,4.1v3.7l-6.9-19.6c-0.8-2.2-3.3-3.4-5.5-2.6c-2.3,0.8-3.4,3.3-2.6,5.5l7.4,20.9
		l-16-24.6c-1.4-2.2-4.4-2.8-6.5-1.4c-2.2,1.4-2.8,4.4-1.4,6.5l12.7,19.5l4.8,6.5c-2.7-1.6-8.6-4.2-14-3.3
		c-4.5,0.8-8.6,3.1-11.4,6.6c-1.6,2-1.3,5,0.7,6.6c2,1.6,5,1.3,6.6-0.7c1.4-1.7,3.4-2.9,5.6-3.3c2.4-0.4,4.8,0.2,6.8,1.6
		s3.3,3.5,3.7,5.9c0.8,5-2.6,9.7-7.6,10.4c-4.9,0.8-9.7-2.6-10.4-7.6c-0.4-2.6-2.8-4.3-5.4-3.9s-4.3,2.8-3.9,5.4
		c0.9,5.5,4.2,10.1,8.6,12.8l18.3,13.8v13.2h24.7V36.7C94.8,35,92.9,33.1,90.6,33.1z"/>
</g>
<path class="st1" d="M36,7L16.6,1.9c-4.6-1.1-8.8,1.4-9.9,6L2.5,27.5l33.9,55.3L70,62.2L36,7z M20.3,19.2c-1.9,1.2-4.5,0.6-5.6-1.4
	c-1.2-1.9-0.6-4.5,1.4-5.6c1.9-1.2,4.5-0.6,5.6,1.4C22.8,15.5,22.2,18,20.3,19.2z"/>
<g>
	<path class="st2" d="M35.8,34.7c-1.6-2.7-4.6-2.8-7.2-1.1c-2.7,1.6-4,4.4-2.3,7c1.6,2.7,3.6,2.2,7.8,1.9c4.2-0.4,6.2-0.8,7.8,1.9
		c1.6,2.7,0.3,5.3-2.4,7c-2.7,1.6-5.7,1.6-7.3-1.1"/>
	<line class="st3" x1="26.4" y1="30.2" x2="28.1" y2="32.8"/>
	<line class="st3" x1="39.7" y1="51.9" x2="41.7" y2="55.1"/>
</g>
<g>
	<line class="st4" x1="34.8" y1="74" x2="37.3" y2="78.2"/>
	<line class="st4" x1="39.4" y1="71.2" x2="42" y2="75.3"/>
	<line class="st4" x1="44.1" y1="68.3" x2="46.6" y2="72.5"/>
	<line class="st4" x1="48.8" y1="65.4" x2="51.3" y2="69.6"/>
	<line class="st4" x1="53.4" y1="62.6" x2="56" y2="66.7"/>
	<line class="st4" x1="58.1" y1="59.7" x2="60.7" y2="63.9"/>
	<line class="st4" x1="62.8" y1="56.9" x2="65.3" y2="61"/>
</g>
<g>
	<path class="st0" d="M62.9,75.8c5-0.8,8.4-5.5,7.6-10.5c-0.4-2.4-1.7-4.5-3.7-6c-2-1.4-4.4-2-6.8-1.6c-2.2,0.4-4.2,1.5-5.7,3.3
		c-1.6,2-4.6,2.3-6.6,0.7c-2-1.6-2.3-4.6-0.7-6.6c2.9-3.5,7-5.8,11.4-6.6c5.4-0.9,11.3,1.7,14,3.3l-4.8-6.5L54.9,25.8
		c-1.4-2.2-0.8-5.1,1.4-6.5s5.1-0.8,6.5,1.4l16,24.6l-7.4-20.9c-0.8-2.2,0.4-4.7,2.6-5.5c2.2-0.8,4.7,0.4,5.5,2.6l7,19.5v-3.7
		c0-2.3,1.8-4.1,4.1-4.1s4.1,1.8,4.1,4.1v72.4H70V96.5"/>
</g>
<path class="st5" d="M94.1,37.9v56.3H90V34C92.2,33.5,94.1,35.2,94.1,37.9z"/>
<rect x="65.7" y="93.6" class="st6" width="32.4" height="17"/>
<circle class="st7" cx="92.5" cy="103.1" r="2.3"/>
</svg>
