<svg xmlns="http://www.w3.org/2000/svg" viewBox="-13648.75 824.25 19.5 19.5">
  <defs>
    <style>
      .cls-1 {
        fill: #60a5aa;
        stroke: rgba(0,0,0,0);
      }

      .cls-1, .cls-2 {
        fill-rule: evenodd;
      }

      .cls-2 {
        fill: none;
        stroke: #60a5aa;
        stroke-width: 1.5px;
      }
    </style>
  </defs>
  <g id="Group_5026" data-name="Group 5026" transform="translate(-13976 -1)">
    <g id="Group_5025" data-name="Group 5025">
      <g id="Group_5016" data-name="Group 5016">
        <path id="check_on_light" class="cls-1" d="M19,3H5A2.006,2.006,0,0,0,3,5V19a2.006,2.006,0,0,0,2,2H19a2.006,2.006,0,0,0,2-2V5a2.006,2.006,0,0,0-2-2ZM10,17,5,12.192l1.4-1.346L10,14.308,17.6,7,19,8.346,10,17Z" transform="translate(325 823)"/>
      </g>
      <path id="check_on_light-2" data-name="check_on_light" class="cls-2" d="M19,3H5A2.006,2.006,0,0,0,3,5V19a2.006,2.006,0,0,0,2,2H19a2.006,2.006,0,0,0,2-2V5a2.006,2.006,0,0,0-2-2Z" transform="translate(325 823)"/>
    </g>
  </g>
</svg>
