<?xml version="1.0" encoding="utf-8"?>
<!-- Generator: Adobe Illustrator 21.1.0, SVG Export Plug-In . SVG Version: 6.00 Build 0)  -->
<!DOCTYPE svg PUBLIC "-//W3C//DTD SVG 1.1//EN" "http://www.w3.org/Graphics/SVG/1.1/DTD/svg11.dtd">
<svg version="1.1" id="Layer_1" xmlns="http://www.w3.org/2000/svg" xmlns:xlink="http://www.w3.org/1999/xlink" x="0px" y="0px"
	 viewBox="0 0 16 20" style="enable-background:new 0 0 16 20;" xml:space="preserve">
<style type="text/css">
	.st0{enable-background:new    ;}
	.st1{fill:#FFFFFF;}
</style>
<g class="st0">
	<path class="st1" d="M14.9,14.9c0,0.3-0.1,0.6-0.3,0.8L13,17.1c-0.2,0.2-0.5,0.3-0.8,0.3s-0.6-0.1-0.8-0.3l-3.3-3.3L5,17.1
		c-0.2,0.2-0.5,0.3-0.8,0.3s-0.6-0.1-0.8-0.3l-1.5-1.5c-0.2-0.2-0.3-0.5-0.3-0.8c0-0.3,0.1-0.5,0.3-0.8l3.3-3.3L1.9,7.5
		C1.7,7.3,1.6,7.1,1.6,6.8c0-0.3,0.1-0.6,0.3-0.8l1.5-1.5c0.2-0.2,0.5-0.3,0.8-0.3S4.7,4.3,5,4.5l3.3,3.3l3.3-3.3
		c0.2-0.2,0.5-0.3,0.8-0.3s0.5,0.1,0.8,0.3L14.5,6c0.2,0.2,0.3,0.5,0.3,0.8c0,0.3-0.1,0.6-0.3,0.8l-3.3,3.3l3.3,3.3
		C14.8,14.3,14.9,14.6,14.9,14.9z"/>
</g>
</svg>
