<?xml version="1.0" encoding="utf-8"?>
<!-- Generator: Adobe Illustrator 20.0.0, SVG Export Plug-In . SVG Version: 6.00 Build 0)  -->
<!DOCTYPE svg PUBLIC "-//W3C//DTD SVG 1.1//EN" "http://www.w3.org/Graphics/SVG/1.1/DTD/svg11.dtd">
<svg version="1.1" id="Layer_1" xmlns="http://www.w3.org/2000/svg" xmlns:xlink="http://www.w3.org/1999/xlink" x="0px" y="0px"
	 viewBox="0 0 34.2 38.4" style="enable-background:new 0 0 34.2 38.4;" xml:space="preserve">
<style type="text/css">
	.st0{fill:#60A5AA;}
</style>
<g>
	<path class="st0" d="M14.8,13c-0.3-1.4-1.6-2.4-3-2.4H5.2c-1.4,0-2.7,1.1-3,2.4l-1.7,7.9c-0.2,0.7,0,1.5,0.4,2s0.9,0.7,1.5,0.7h1
		l1,12c0.1,1.4,1.2,2.5,2.4,2.5H10c1.3,0,2.3-1.1,2.4-2.5l0.8-10.7l0.1-1.3h1.1c0.6,0,1.2-0.3,1.6-0.7c0.4-0.5,0.6-1.2,0.4-2
		L14.8,13z"/>
	<path class="st0" d="M15,22c-0.1,0.2-0.3,0.2-0.5,0.2h-2.4L11,35.4c-0.1,0.7-0.6,1.3-1.1,1.3H6.7c-0.5,0-1-0.6-1.1-1.3L4.8,24.7
		l-0.2-2.5H2.3c-0.2,0-0.3-0.1-0.5-0.2c-0.2-0.2-0.2-0.5-0.1-0.8l1.7-7.9C3.6,12.6,4.3,12,5.1,12h6.6c0.7,0,1.5,0.6,1.7,1.3l1.7,7.9
		C15.2,21.5,15.2,21.8,15,22z"/>
	<circle class="st0" cx="8.5" cy="4.9" r="4.5"/>
	<circle class="st0" cx="8.5" cy="4.9" r="3.2"/>
	<path class="st0" d="M33.8,27.9L29.4,13c-0.3-1.3-1.6-2.4-2.9-2.4H24c-1.4,0-2.7,1.1-3,2.4l-4.3,14.9l0,0c-0.1,0.7,0,1.4,0.4,1.9
		s1.1,0.8,1.8,0.8h1.9l0.4,5c0.1,1.4,1.2,2.5,2.4,2.5h3.2c1.3,0,2.3-1.1,2.4-2.5l0.3-3.7l0.1-1.3h2c0.7,0,1.4-0.3,1.8-0.9
		C33.8,29.2,33.9,28.6,33.8,27.9z"/>
	<path class="st0" d="M22.3,13.3L22.3,13.3c0.2-0.8,0.9-1.4,1.7-1.4h2.5c0.7,0,1.5,0.6,1.6,1.3l4.4,14.9c0.1,0.3,0,0.5-0.1,0.7
		c-0.2,0.2-0.4,0.3-0.7,0.3h-3.3l-0.5,6.2c-0.1,0.7-0.6,1.3-1.1,1.3h-3.2c-0.5,0-1-0.6-1.1-1.3L22,29.1h-3.1c-0.3,0-0.6-0.1-0.7-0.3
		C18,28.6,18,28.3,18,28.1L22.3,13.3z"/>
	<circle class="st0" cx="25.2" cy="4.9" r="4.5"/>
	<circle class="st0" cx="25.2" cy="4.9" r="3.2"/>
</g>
</svg>
