<svg xmlns="http://www.w3.org/2000/svg" xmlns:xlink="http://www.w3.org/1999/xlink" viewBox="-6496.54 440.774 42.225 45.473"><defs><style>.a{fill:#484b52;}.b{fill:#fff;}.c{fill:#60a5aa;}.d{fill:#e6e7e8;}.e{clip-path:url(#a);}</style><clipPath id="a"><path d="M4.3,29.1H36.179v4.331a.259.259,0,0,1-.241.241H4.541a.259.259,0,0,1-.241-.241Z" transform="translate(-4.3 -29.1)"/></clipPath></defs><g transform="translate(-6496.54 440.774)"><g transform="translate(2.887 0)"><path class="a" d="M36.685,20.069H4.565A2.156,2.156,0,0,1,2.4,17.9V2.265A2.156,2.156,0,0,1,4.565.1H36.685A2.156,2.156,0,0,1,38.85,2.265V17.9A2.154,2.154,0,0,1,36.685,20.069ZM4.565,1.183a.949.949,0,0,0-.962.962V17.784a.949.949,0,0,0,.962.962H36.685a.949.949,0,0,0,.962-.962V2.145a.949.949,0,0,0-.962-.962H4.565Z" transform="translate(-2.4 -0.1)"/></g><path class="a" d="M39.578,25.295h0V22.648A3.4,3.4,0,0,0,35.969,19.4H6.255a3.48,3.48,0,0,0-3.609,3.248v2.647h0A2.67,2.67,0,0,0,0,27.941V38.166a2.67,2.67,0,0,0,2.647,2.647H3.97v.842h1.2v-.842h32v.842h1.2v-.842H39.7a2.848,2.848,0,0,0,1.2-.361,2.579,2.579,0,0,0,1.323-2.286V27.821A2.649,2.649,0,0,0,39.578,25.295Z" transform="translate(0 3.817)"/><path class="b" d="M3.2,22.545A2.284,2.284,0,0,1,5.606,20.5H35.44a2.284,2.284,0,0,1,2.406,2.045v3.007a2.579,2.579,0,0,0-1.323,2.286v1.925h-32V27.838A2.847,2.847,0,0,0,3.2,25.552V22.545Z" transform="translate(0.65 4.041)"/><path class="c" d="M4.3,29.1H36.179v4.331a.259.259,0,0,1-.241.241H4.541a.259.259,0,0,1-.241-.241Z" transform="translate(0.873 5.786)"/><path class="d" d="M40.819,36.989a1.323,1.323,0,0,1-.722,1.2,1.308,1.308,0,0,1-.6.12H2.444A1.24,1.24,0,0,1,1,36.989V26.644A1.463,1.463,0,0,1,2.444,25.2a1.463,1.463,0,0,1,1.444,1.444V34.1a1.39,1.39,0,0,0,1.444,1.444h31.4A1.39,1.39,0,0,0,38.172,34.1V26.644a1.444,1.444,0,1,1,2.887,0V36.989Z" transform="translate(0.203 4.995)"/><g transform="translate(11.789 28.39)"><ellipse class="c" cx="0.842" cy="0.842" rx="0.842" ry="0.842"/><ellipse class="c" cx="0.842" cy="0.842" rx="0.842" ry="0.842" transform="translate(8.541 0.12)"/><ellipse class="c" cx="0.842" cy="0.842" rx="0.842" ry="0.842" transform="translate(16.962 0.12)"/></g><g transform="translate(5.173 34.886)"><g class="e"><path class="b" d="M5.646,28.915a.366.366,0,0,0-.481,0l-3.85,3.85a.366.366,0,0,0,0,.481c.12.12.12.12.241.12s.241,0,.241-.12l3.85-3.85A.366.366,0,0,0,5.646,28.915Z" transform="translate(-4.924 -29.156)"/><path class="b" d="M9.927,28.915a.366.366,0,0,0-.481,0L5.115,33.246a.366.366,0,0,0,0,.481c0,.12.12.12.241.12s.241,0,.241-.12L9.927,29.4A.366.366,0,0,0,9.927,28.915Z" transform="translate(-4.153 -29.156)"/><path class="b" d="M7.827,28.915a.366.366,0,0,0-.481,0L3.015,33.246a.366.366,0,0,0,0,.481c0,.12.12.12.241.12s.241,0,.241-.12L7.827,29.4A.366.366,0,0,0,7.827,28.915Z" transform="translate(-4.579 -29.156)"/><path class="b" d="M12.027,28.915a.366.366,0,0,0-.481,0L7.215,33.246a.366.366,0,0,0,0,.481c0,.12.12.12.241.12s.241,0,.241-.12L12.027,29.4A.366.366,0,0,0,12.027,28.915Z" transform="translate(-3.727 -29.156)"/><path class="b" d="M14.127,28.915a.366.366,0,0,0-.481,0L9.315,33.246a.366.366,0,0,0,0,.481c0,.12.12.12.241.12s.241,0,.241-.12L14.127,29.4A.366.366,0,0,0,14.127,28.915Z" transform="translate(-3.3 -29.156)"/><path class="b" d="M16.227,28.915a.366.366,0,0,0-.481,0l-4.331,4.331a.366.366,0,0,0,0,.481c.12.12.12.12.241.12s.241,0,.241-.12L16.227,29.4A.366.366,0,0,0,16.227,28.915Z" transform="translate(-2.874 -29.156)"/><path class="b" d="M18.327,28.915a.366.366,0,0,0-.481,0l-4.331,4.331a.366.366,0,0,0,0,.481c.12.12.12.12.241.12s.241,0,.241-.12L18.327,29.4A.366.366,0,0,0,18.327,28.915Z" transform="translate(-2.448 -29.156)"/><path class="b" d="M20.427,28.915a.366.366,0,0,0-.481,0l-4.331,4.331a.366.366,0,0,0,0,.481c.12.12.12.12.241.12s.241,0,.241-.12L20.427,29.4A.366.366,0,0,0,20.427,28.915Z" transform="translate(-2.022 -29.156)"/><path class="b" d="M22.527,28.915a.366.366,0,0,0-.481,0l-4.331,4.331a.366.366,0,0,0,0,.481c.12.12.12.12.241.12s.241,0,.241-.12L22.527,29.4A.366.366,0,0,0,22.527,28.915Z" transform="translate(-1.595 -29.156)"/><path class="b" d="M24.627,28.915a.366.366,0,0,0-.481,0l-4.331,4.331a.366.366,0,0,0,0,.481c0,.12.12.12.241.12s.241,0,.241-.12L24.627,29.4A.366.366,0,0,0,24.627,28.915Z" transform="translate(-1.169 -29.156)"/><path class="b" d="M26.727,28.915a.366.366,0,0,0-.481,0l-4.331,4.331a.366.366,0,0,0,0,.481c.12.12.12.12.241.12s.241,0,.241-.12L26.727,29.4A.366.366,0,0,0,26.727,28.915Z" transform="translate(-0.743 -29.156)"/><path class="b" d="M28.827,28.915a.366.366,0,0,0-.481,0l-4.331,4.331a.366.366,0,0,0,0,.481c.12.12.12.12.241.12s.241,0,.241-.12L28.827,29.4A.366.366,0,0,0,28.827,28.915Z" transform="translate(-0.317 -29.156)"/><path class="b" d="M33.8,30.015a.366.366,0,0,0-.481,0l-3.007,3.007a.366.366,0,0,0,0,.481c.12.12.12.12.241.12s.241,0,.241-.12L33.8,30.5A.366.366,0,0,0,33.8,30.015Z" transform="translate(0.962 -28.933)"/><path class="b" d="M33.027,28.915a.366.366,0,0,0-.481,0l-4.331,4.331a.366.366,0,0,0,0,.481c.12.12.12.12.241.12s.241,0,.241-.12L33.027,29.4A.366.366,0,0,0,33.027,28.915Z" transform="translate(0.536 -29.156)"/><path class="b" d="M30.927,28.915a.366.366,0,0,0-.481,0l-4.331,4.331a.366.366,0,0,0,0,.481c.12.12.12.12.241.12s.241,0,.241-.12L30.927,29.4A.366.366,0,0,0,30.927,28.915Z" transform="translate(0.11 -29.156)"/></g></g><path class="d" d="M34.976,17.137H5.623A1.335,1.335,0,0,1,4.3,15.814V3.423A1.335,1.335,0,0,1,5.623,2.1H34.856a1.335,1.335,0,0,1,1.323,1.323V15.814A1.318,1.318,0,0,1,34.976,17.137Z" transform="translate(0.873 0.306)"/><g transform="translate(6.737 14.315)"><rect class="c" width="28.871" height="1.203"/></g></g></svg>