<svg xmlns="http://www.w3.org/2000/svg" viewBox="-13599.518 876.75 24.099 22.167">
  <defs>
    <style>
      .cls-1 {
        fill: #484b51;
        stroke: #484b51;
        stroke-width: 0.5px;
      }
    </style>
  </defs>
  <g id="Symbol_67" data-name="Symbol 67" transform="translate(-14356.268 -54)">
    <path id="Path_698" data-name="Path 698" class="cls-1" d="M23.01,2.351H8.4a2.525,2.525,0,0,0-5.039,0H.588a.588.588,0,1,0,0,1.176H3.359V3.359A2.474,2.474,0,0,0,5.879,5.879,2.474,2.474,0,0,0,8.4,3.359v.168H23.01a.588.588,0,1,0,0-1.176ZM7.306,3.443a1.428,1.428,0,0,1-2.855,0V2.519A1.415,1.415,0,0,1,5.879,1.092,1.367,1.367,0,0,1,7.306,2.519Z" transform="translate(757 931)"/>
    <path id="Path_699" data-name="Path 699" class="cls-1" d="M23.01,11.751H17.888a2.525,2.525,0,0,0-5.039,0H.588a.588.588,0,1,0,0,1.176H12.849v-.168a2.519,2.519,0,0,0,5.039,0v.168H23.01a.588.588,0,1,0,0-1.176ZM16.8,12.759a1.428,1.428,0,0,1-2.855,0v-.924a1.428,1.428,0,0,1,2.855,0Z" transform="translate(757 929.494)"/>
    <path id="Path_700" data-name="Path 700" class="cls-1" d="M23.01,21.051H10.917a2.525,2.525,0,0,0-5.039,0H.588A.574.574,0,0,0,0,21.639a.649.649,0,0,0,.588.672H5.879v-.168A2.474,2.474,0,0,0,8.4,24.663a2.474,2.474,0,0,0,2.519-2.519v.168H23.01a.574.574,0,0,0,.588-.588A.6.6,0,0,0,23.01,21.051ZM9.826,22.143a1.428,1.428,0,1,1-2.855,0v-.924a1.428,1.428,0,0,1,2.855,0Z" transform="translate(757 928.004)"/>
  </g>
</svg>
