<svg xmlns="http://www.w3.org/2000/svg" xmlns:xlink="http://www.w3.org/1999/xlink" viewBox="0 0 230.72 230.72"><defs><style>.cls-1{fill:#60a5aa;}.cls-2{fill:#fff;}.cls-3{fill:none;stroke:#60a5aa;stroke-miterlimit:10;stroke-width:20px;}</style><symbol id="Notepad" data-name="Notepad" viewBox="0 0 127.55 127.62"><path class="cls-1" d="M123.86,23.59,104,3.69a12.34,12.34,0,0,0-17.39-.21l0,0h0L14,76l-1.46,1.44L0,127.62l50.08-12.57,4.68-4.75h0L124.06,41h0A12.32,12.32,0,0,0,123.86,23.59ZM17.7,82.54l27.38,27.37-25.71,6.44-8-8.45ZM50.11,93,34.58,77.45l52-52L102.08,41Z"/></symbol></defs><title>Asset 1edit_svg</title><g id="Layer_2" data-name="Layer 2"><g id="Layer_1-2" data-name="Layer 1"><circle class="cls-2" cx="115.36" cy="115.36" r="106.77"/><circle class="cls-3" cx="115.36" cy="115.36" r="105.36"/><use id="Notepad-3" data-name="Notepad" width="127.55" height="127.62" transform="translate(51.58 43.39)" xlink:href="#Notepad"/></g></g></svg>