<svg xmlns="http://www.w3.org/2000/svg" viewBox="-12925 823.68 33 19.32">
  <defs>
    <style>
      .cls-1 {
        fill: #484b51;
      }

      .cls-2 {
        fill: #fff;
      }
    </style>
  </defs>
  <g id="Group_5017" data-name="Group 5017" transform="translate(-12925 823.68)">
    <g id="Group_4161" data-name="Group 4161">
      <path id="Path_605" data-name="Path 605" class="cls-1" d="M29.857,19.32H3.143A2.963,2.963,0,0,1,0,16.484V2.836A2.963,2.963,0,0,1,3.143,0H29.857A2.963,2.963,0,0,1,33,2.836V16.484A3.232,3.232,0,0,1,29.857,19.32ZM3.143,1.773A1.211,1.211,0,0,0,1.964,2.836V16.484a1.211,1.211,0,0,0,1.179,1.063H29.857a1.211,1.211,0,0,0,1.179-1.063V2.836a1.211,1.211,0,0,0-1.179-1.064Z"/>
    </g>
    <g id="Group_4162" data-name="Group 4162" transform="translate(0.393 8.331)">
      <path id="Path_606" data-name="Path 606" class="cls-1" d="M31.236,15.335,16.307,6.827,1.379,15.335.2,13.74,16.307,4.7l15.911,9.04Z" transform="translate(-0.2 -4.7)"/>
    </g>
    <g id="Group_4163" data-name="Group 4163">
      <path id="Path_607" data-name="Path 607" class="cls-2" d="M16.018,12.021.5,1.918A1.483,1.483,0,0,1,2.071.5h27.5a1.476,1.476,0,0,1,1.571,1.418Z" transform="translate(0.482 0.386)"/>
      <path id="Path_608" data-name="Path 608" class="cls-1" d="M16.5,13.471,0,2.836V2.3A2.483,2.483,0,0,1,2.554,0h27.5a2.483,2.483,0,0,1,2.554,2.3v.532ZM2.161,1.95,16.5,11.167,30.839,1.95c-.2,0-.393-.177-.589-.177H2.75A.913.913,0,0,0,2.161,1.95Z"/>
    </g>
  </g>
</svg>
