<svg xmlns="http://www.w3.org/2000/svg" viewBox="-11644 1274 16.8 10.8">
  <defs>
    <style>
      .cls-1 {
        fill: #60a5aa;
      }
    </style>
  </defs>
  <path id="Path_684" data-name="Path 684" class="cls-1" d="M15.4,0H1.3A1.324,1.324,0,0,0,0,1.3v.2H0V9.2a1.58,1.58,0,0,0,1.6,1.6H15.2a1.58,1.58,0,0,0,1.6-1.6V1.6h0V1.3A1.493,1.493,0,0,0,15.4,0Zm-.2,1a.52.52,0,0,1,.4.2L8.4,6.4,1.1,1.2c.2-.1.3-.2.5-.2ZM8.4,7.6l1.3-1,5.1,3.2H1.9L7,6.7ZM6.2,6,1,9.2V2.3Zm9.5,3.2L10.6,6l5.2-3.7V9.2Z" transform="translate(-11644 1274)"/>
</svg>
