<?xml version="1.0" encoding="utf-8"?>
<!-- Generator: Adobe Illustrator 20.0.0, SVG Export Plug-In . SVG Version: 6.00 Build 0)  -->
<!DOCTYPE svg PUBLIC "-//W3C//DTD SVG 1.1//EN" "http://www.w3.org/Graphics/SVG/1.1/DTD/svg11.dtd">
<svg version="1.1" id="Layer_1" xmlns="http://www.w3.org/2000/svg" xmlns:xlink="http://www.w3.org/1999/xlink" x="0px" y="0px"
	 viewBox="0 0 79 122" style="enable-background:new 0 0 79 122;" xml:space="preserve">
<style type="text/css">
	.st0{fill:#F58021;}
	.st1{fill:#393C41;}
	.st2{fill:#FFFFFF;}
	.st3{fill:#393C41;stroke:#F5CEAF;stroke-miterlimit:10;}
	.st4{fill:#F5CEAF;stroke:#393C41;stroke-width:1.5;stroke-miterlimit:10;}
	.st5{fill:none;stroke:#FFFFFF;stroke-width:1.5;stroke-linecap:round;stroke-miterlimit:10;}
	.st6{fill:none;}
	.st7{fill:#F5CEAF;stroke:#3A3D42;stroke-width:1.5;stroke-miterlimit:10;}
	.st8{fill:#F7F9FA;stroke:#3A3D42;stroke-width:1.5;stroke-miterlimit:10;}
	.st9{fill:#F7F9FA;}
	.st10{fill:#3A3D42;}
	.st11{fill:#F5CEAF;}
	.st12{fill:#676767;}
	.st13{fill:none;stroke:#393C41;stroke-width:1.5;stroke-miterlimit:10;}
	.st14{fill:none;stroke:#393C41;stroke-miterlimit:10;}
	.st15{fill:none;stroke:#CCCCCC;stroke-width:3;stroke-linecap:round;stroke-miterlimit:10;}
	.st16{fill:none;stroke:#3A3D42;stroke-width:3;stroke-linecap:round;stroke-miterlimit:10;}
</style>
<g>
	<path class="st0" d="M39.7,120c-0.3,0-0.5,0-0.8,0h-0.4H2.4v-13.5c0-14.2,8.3-27.5,21.1-33.6c5.1-2.5,10.5-3.7,16.2-3.7
		c20.6,0,37.3,16.7,37.3,37.3V120H40.8h-0.4C40.2,120,40,120,39.7,120z"/>
	<g>
		<path class="st1" d="M39.7,69.9c20.2,0,36.6,16.4,36.6,36.6v12.7H40.9c-0.4,0-0.8,0-1.1,0s-0.8,0-1.1,0H3.1v-12.7
			c0-14.5,8.5-27.1,20.7-33l0,0C28.7,71.2,34,69.9,39.7,69.9 M39.7,68.4c-5.8,0-11.3,1.3-16.5,3.8C10.1,78.5,1.6,92,1.6,106.5v12.7
			v1.5h1.5h35.4h0.3c0.3,0,0.5,0,0.8,0s0.5,0,0.8,0h0.4h35.4h1.5v-1.5v-12.7C77.8,85.5,60.7,68.4,39.7,68.4L39.7,68.4z"/>
	</g>
</g>
<polygon class="st2" points="29.1,87.3 35.3,119.5 44.4,119.5 50.4,87.3 "/>
<polygon class="st1" points="39.7,84.1 35.2,91.6 35.3,119.3 39.7,119.3 44.2,119.3 44.3,91.6 "/>
<rect x="19.2" y="111.6" class="st3" width="0.6" height="6.9"/>
<rect x="59.5" y="111.6" class="st3" width="0.5" height="6.9"/>
<g>
	<path class="st1" d="M26.3,72.4l9,47L19.7,95l4.5-6.5l-4.8,0.6c0,0-3.2-10.7-1.2-12.4C20.3,75.1,26.3,72.4,26.3,72.4z"/>
</g>
<g>
	<path class="st1" d="M53.4,72.4l-9,47L60,95l-4.5-6.5l4.8,0.6c0,0,3.2-10.7,1.2-12.4S53.4,72.4,53.4,72.4z"/>
</g>
<path class="st4" d="M39.7,83.8l-6.6,10.9L22.3,74c0,0,5.8-3.2,8.5-3.3v4.1C30.8,79.8,34.8,83.8,39.7,83.8z"/>
<path class="st4" d="M39.8,83.8l6.6,10.9L57.2,74c0,0-5.8-3.2-8.5-3.3v4.1C48.7,79.8,44.7,83.8,39.8,83.8z"/>
<g>
	<line class="st5" x1="42.1" y1="91.2" x2="37.4" y2="91.2"/>
	<line class="st5" x1="42.1" y1="96.5" x2="37.4" y2="96.5"/>
	<line class="st5" x1="42.1" y1="101.7" x2="37.4" y2="101.7"/>
	<line class="st5" x1="42.1" y1="107" x2="37.4" y2="107"/>
	<line class="st5" x1="42.1" y1="112.2" x2="37.4" y2="112.2"/>
	<line class="st5" x1="42.1" y1="117.5" x2="37.4" y2="117.5"/>
</g>
<g>
	<ellipse class="st2" cx="39.8" cy="74.5" rx="8.2" ry="8.5"/>
</g>
<path class="st6" d="M30.6,58.8l0.2,8.9c0.1,4.9,4.2,8.8,9.1,8.7s8.8-4.2,8.7-9.1l-0.2-8.9L30.6,58.8z"/>
<circle class="st7" cx="63.4" cy="41.5" r="5.2"/>
<circle class="st8" cx="16" cy="41.5" r="5.2"/>
<g>
	<path class="st9" d="M39.7,72.5c-13.5,0-24.4-11-24.4-24.4V34.8c0-13.5,11-24.4,24.4-24.4c13.5,0,24.4,11,24.4,24.4v13.3
		C64.1,61.6,53.2,72.5,39.7,72.5z"/>
	<path class="st10" d="M39.7,11.1c13.1,0,23.7,10.6,23.7,23.7v13.3c0,13.1-10.6,23.7-23.7,23.7S16,61.2,16,48.1V34.8
		C16,21.7,26.6,11.1,39.7,11.1 M39.7,9.6c-13.9,0-25.2,11.3-25.2,25.2v13.3c0,13.9,11.3,25.2,25.2,25.2S64.9,62,64.9,48.1V34.8
		C64.9,20.9,53.6,9.6,39.7,9.6L39.7,9.6z"/>
</g>
<path class="st11" d="M63.4,34.8v13.3c0,13.1-10.6,23.7-23.7,23.7c-0.9,0-1.8-0.1-2.6-0.1c11.8-1.3,21.1-11.3,21.1-23.5V34.9
	c0-12.2-9.2-22.2-21-23.5c0.9-0.1,1.7-0.1,2.6-0.1C52.8,11.1,63.4,21.7,63.4,34.8z"/>
<circle class="st12" cx="28.5" cy="39.2" r="2.3"/>
<circle class="st12" cx="52.1" cy="39.2" r="2.3"/>
<g>
	<circle class="st13" cx="28.5" cy="41.9" r="6.8"/>
	<line class="st14" x1="15.1" y1="34.3" x2="22.3" y2="38.9"/>
	<circle class="st13" cx="51" cy="41.9" r="6.8"/>
	<line class="st14" x1="64.4" y1="34.3" x2="57.1" y2="38.9"/>
	<path class="st14" d="M44.3,40.8c0,0-1.7-1.9-4.5-1.9s-4.5,1.9-4.5,1.9"/>
	<g>
		<path class="st14" d="M46,37c0,0-1.9-2.9-6.3-2.9S33.4,37,33.4,37"/>
	</g>
</g>
<path class="st15" d="M46.1,57.6c-1.8,1.4-4.1,2.2-6.5,2.2c-2.3,0-4.5-0.8-6.3-2"/>
<path class="st16" d="M23,31.8c1-0.9,2.2-1.5,3.6-2c1.7-0.5,3.4-0.7,5-0.4"/>
<path class="st16" d="M57.2,31.8c-1-0.9-2.2-1.5-3.6-2c-1.7-0.5-3.4-0.7-5-0.4"/>
<g>
	<path class="st1" d="M64.4,36.1c0-6.2-2.3-12.1-6.5-16.7c-0.8,0.8-2.1,1.5-3.9,1.5c-1.1,0-2.4-0.3-3.7-0.9
		c-1.7-0.7-2.9-1.6-3.7-2.7c-1.6,1.4-3.9,2.1-6.9,2.1c-3.2,0-5.6-0.8-7.3-2.3c-0.8,1.3-2.2,2.2-4,3c-1.3,0.5-2.5,0.8-3.6,0.8
		c-1.3,0-2.5-0.4-3.5-1.1c-4,4.5-6.3,10.3-6.3,16.4h-1.5v-7.8C13.5,14,25.2,2.3,39.7,2.3c14.4,0,26.1,11.7,26.1,26.1v7.8L64.4,36.1
		L64.4,36.1z"/>
	<path class="st1" d="M39.7,2.9c14,0,25.4,11.4,25.4,25.4v7.8c0-6.9-2.8-13.2-7.3-17.8c-0.7,0.9-2,1.8-3.9,1.8c-1,0-2.1-0.2-3.4-0.8
		c-2.2-1-3.3-2.1-3.9-3.2c-1.2,1.4-3.4,2.6-7,2.6c-4.1,0-6.3-1.4-7.4-2.9c-0.5,1.3-1.7,2.6-4.1,3.6c-1.3,0.5-2.4,0.7-3.3,0.7
		c-1.7,0-2.8-0.7-3.5-1.5c-4.3,4.6-7,10.7-7,17.4v-7.8C14.3,14.2,25.7,2.9,39.7,2.9 M39.7,1.4c-14.8,0-26.9,12.1-26.9,26.9v7.8h3
		c0-5.7,2-11.1,5.6-15.4c1,0.6,2.1,0.9,3.4,0.9c1.2,0,2.5-0.3,3.9-0.8c1.7-0.7,3-1.5,3.9-2.6c1.7,1.3,4.1,2,7.1,2
		c2.8,0,5-0.6,6.8-1.8c0.9,0.9,2,1.7,3.5,2.4c1.4,0.6,2.7,0.9,4,0.9c1.4,0,2.7-0.4,3.8-1.2c3.8,4.4,5.9,9.9,5.9,15.7h3v-7.8
		C66.6,13.4,54.6,1.4,39.7,1.4L39.7,1.4z"/>
</g>
</svg>
