<?xml version="1.0" encoding="utf-8"?>
<!-- Generator: Adobe Illustrator 20.0.0, SVG Export Plug-In . SVG Version: 6.00 Build 0)  -->
<!DOCTYPE svg PUBLIC "-//W3C//DTD SVG 1.1//EN" "http://www.w3.org/Graphics/SVG/1.1/DTD/svg11.dtd">
<svg version="1.1" id="Layer_1" xmlns="http://www.w3.org/2000/svg" xmlns:xlink="http://www.w3.org/1999/xlink" x="0px" y="0px"
	 viewBox="0 0 112 114.7" style="enable-background:new 0 0 112 114.7;" xml:space="preserve">
<style type="text/css">
	.st0{fill:#F5CEAF;}
	.st1{fill:#AFACAE;stroke:#3A3D42;stroke-width:1.5;stroke-miterlimit:10;}
	.st2{fill:#393C41;stroke:#393C41;stroke-width:1.5;stroke-miterlimit:10;}
	.st3{fill:#E27225;stroke:#3A3D42;stroke-width:1.5;stroke-linejoin:round;stroke-miterlimit:10;}
	.st4{fill:#FFFFFF;stroke:#3A3D42;stroke-width:1.5;stroke-linejoin:round;stroke-miterlimit:10;}
	.st5{fill:none;stroke:#F58021;stroke-width:2;stroke-linecap:round;stroke-linejoin:round;}
	.st6{fill:none;stroke:#F58021;stroke-width:2;stroke-linecap:round;stroke-linejoin:round;stroke-dasharray:0,4.0128;}
</style>
<ellipse class="st0" cx="24.4" cy="111.2" rx="11.1" ry="2"/>
<ellipse class="st0" cx="93.8" cy="46.9" rx="7.9" ry="1.4"/>
<path class="st1" d="M40.1,57.2c-4.2-4.7-9.8-7.3-15.7-7.3s-11.5,2.6-15.7,7.3c-8.5,9.6-8.5,25.2,0,34.8l15.7,17.8L40.1,92
	C48.7,82.4,48.7,66.8,40.1,57.2z"/>
<path class="st1" d="M105.5,6.9c-3.1-3.5-7.2-5.4-11.7-5.4c-4.4,0-8.6,1.9-11.7,5.4c-6.3,7.1-6.3,18.7,0,25.8l11.7,13.2l11.7-13.2
	C111.8,25.7,111.8,14.1,105.5,6.9z"/>
<path class="st2" d="M93.8,45.9l11.7-13.2c6.3-7.1,6.3-18.7,0-25.8c-3.1-3.5-7.2-5.4-11.7-5.4"/>
<path class="st3" d="M93.8,9.7c-4.5,0-8.2,3.7-8.2,8.2s3.7,8.2,8.2,8.2s8.2-3.7,8.2-8.2S98.4,9.7,93.8,9.7z"/>
<path class="st2" d="M24.4,109.8L40.1,92c8.5-9.6,8.5-25.2,0-34.8c-4.2-4.7-9.8-7.3-15.7-7.3"/>
<path class="st4" d="M24.4,60.9c-6.1,0-11.1,5-11.1,11.1s5,11.1,11.1,11.1s11.1-5,11.1-11.1S30.5,60.9,24.4,60.9z"/>
<g>
	<g>
		<line class="st5" x1="83.2" y1="46.7" x2="83.2" y2="46.7"/>
		<path class="st6" d="M79.2,46.7H60.3c-4.5,0-8.1,3.6-8.1,8.1s3.6,8.1,8.1,8.1h40.1c4.5,0,8.1,3.6,8.1,8.1s-3.6,8.1-8.1,8.1
			L59.6,79c-4.5,0-8.1,3.6-8.1,8.1s3.6,8.1,8.1,8.1l29.9-0.1c4.5,0,8.1,3.6,8.1,8.1s-3.6,8.1-8.1,8.1h-48"/>
		<line class="st5" x1="39.5" y1="111.2" x2="39.5" y2="111.2"/>
	</g>
</g>
</svg>
