<svg xmlns="http://www.w3.org/2000/svg" xmlns:xlink="http://www.w3.org/1999/xlink" viewBox="-6503 360 54.915 45.519"><defs><style>.a{fill:#60a5aa;}.b{fill:#484b52;}.c{fill:#e6e7e8;}.d{clip-path:url(#a);}.e{fill:#fff;}</style><clipPath id="a"><path d="M13.1,34.4H40.766v3.758a.225.225,0,0,1-.209.209H13.413a.225.225,0,0,1-.209-.209V34.4Z" transform="translate(-13.1 -34.4)"/></clipPath></defs><g transform="translate(-6503 360)"><path class="a" d="M54.915,21.715,27.457,0,0,21.715l.626.835L27.457,1.357,54.288,22.551Z"/><path class="b" d="M43.252,29.916h0v-2.3A2.954,2.954,0,0,0,40.12,24.8H14.229A3.02,3.02,0,0,0,11.1,27.619v2.3h0a2.317,2.317,0,0,0-2.3,2.3v8.978a2.317,2.317,0,0,0,2.3,2.3h1.148v.731h1.044v-.731H41.06v.731H42.1v-.731h1.148a2.472,2.472,0,0,0,1.044-.313,2.238,2.238,0,0,0,1.148-1.984V32.212A2.23,2.23,0,0,0,43.252,29.916Z" transform="translate(0.387 1.091)"/><path class="c" d="M12,27.575A1.982,1.982,0,0,1,14.088,25.8H39.979a1.982,1.982,0,0,1,2.088,1.775v2.61a2.238,2.238,0,0,0-1.148,1.984v1.67H13.148v-1.67A2.471,2.471,0,0,0,12,30.185Z" transform="translate(0.528 1.135)"/><path class="a" d="M13.1,34.4H40.766v3.758a.225.225,0,0,1-.209.209H13.309a.225.225,0,0,1-.209-.209Z" transform="translate(0.577 1.514)"/><path class="c" d="M44.357,40.836a1.148,1.148,0,0,1-.626,1.044,1.135,1.135,0,0,1-.522.1H11.053A1.269,1.269,0,0,1,9.8,40.731V31.753a1.253,1.253,0,0,1,2.506,0V38.33a1.206,1.206,0,0,0,1.253,1.253H40.807A1.206,1.206,0,0,0,42.06,38.33V31.857a1.253,1.253,0,1,1,2.506,0v8.978Z" transform="translate(0.431 1.342)"/><g transform="translate(19.419 30.381)"><ellipse class="a" cx="0.731" cy="0.731" rx="0.731" ry="0.731"/><ellipse class="a" cx="0.731" cy="0.731" rx="0.731" ry="0.731" transform="translate(7.412 0.104)"/><ellipse class="a" cx="0.731" cy="0.731" rx="0.731" ry="0.731" transform="translate(14.825 0.104)"/></g><path class="b" d="M49.914,21.339a1.441,1.441,0,0,0-.418-.313L28.3,4.113a1.414,1.414,0,0,0-1.775,0L5.335,20.922a2.277,2.277,0,0,0-.522.418A2.014,2.014,0,0,0,4.5,22.383V45.352H5.544V22.383a.384.384,0,0,1,.1-.313l.209-.209,21.3-16.913a.323.323,0,0,1,.209-.1.384.384,0,0,1,.313.1L48.87,21.861h.1l.1.1a.384.384,0,0,1,.1.313V45.247h1.044V22.488A1.494,1.494,0,0,0,49.914,21.339Z" transform="translate(0.198 0.167)"/><g transform="translate(13.677 35.914)"><g class="d"><path class="e" d="M13.862,34.2a.318.318,0,0,0-.418,0L10.1,37.544a.318.318,0,0,0,0,.418c.1.1.1.1.209.1s.209,0,.209-.1l3.341-3.341C13.966,34.621,13.966,34.412,13.862,34.2Z" transform="translate(-13.235 -34.412)"/><path class="e" d="M18.079,34.2a.318.318,0,0,0-.418,0L13.9,37.962a.318.318,0,0,0,0,.418c.1.1.1.1.209.1s.209,0,.209-.1l3.758-3.758C18.184,34.621,18.184,34.412,18.079,34.2Z" transform="translate(-13.068 -34.412)"/><path class="e" d="M15.979,34.2a.318.318,0,0,0-.418,0L11.8,37.962a.318.318,0,0,0,0,.418c.1.1.1.1.209.1s.209,0,.209-.1l3.758-3.758C16.084,34.621,16.084,34.412,15.979,34.2Z" transform="translate(-13.161 -34.412)"/><path class="e" d="M20.179,34.2a.318.318,0,0,0-.418,0L16,37.962a.318.318,0,0,0,0,.418c.1.1.1.1.209.1s.209,0,.209-.1l3.758-3.758C20.284,34.621,20.284,34.412,20.179,34.2Z" transform="translate(-12.976 -34.412)"/><path class="e" d="M22.279,34.2a.318.318,0,0,0-.418,0L18.1,37.962a.318.318,0,0,0,0,.418c.1.1.1.1.209.1s.209,0,.209-.1l3.758-3.758C22.384,34.621,22.384,34.412,22.279,34.2Z" transform="translate(-12.883 -34.412)"/><path class="e" d="M24.379,34.2a.318.318,0,0,0-.418,0L20.2,37.962a.318.318,0,0,0,0,.418c.1.1.1.1.209.1s.209,0,.209-.1l3.758-3.758C24.484,34.621,24.484,34.412,24.379,34.2Z" transform="translate(-12.791 -34.412)"/><path class="e" d="M26.479,34.2a.318.318,0,0,0-.418,0L22.3,37.962a.318.318,0,0,0,0,.418c.1.1.1.1.209.1s.209,0,.209-.1l3.758-3.758C26.584,34.621,26.584,34.412,26.479,34.2Z" transform="translate(-12.698 -34.412)"/><path class="e" d="M28.579,34.2a.318.318,0,0,0-.418,0L24.4,37.962a.318.318,0,0,0,0,.418c.1.1.1.1.209.1s.209,0,.209-.1l3.758-3.758C28.684,34.621,28.684,34.412,28.579,34.2Z" transform="translate(-12.606 -34.412)"/><path class="e" d="M30.679,34.2a.318.318,0,0,0-.418,0L26.5,37.962a.318.318,0,0,0,0,.418c.1.1.1.1.209.1s.209,0,.209-.1l3.758-3.758C30.784,34.621,30.784,34.412,30.679,34.2Z" transform="translate(-12.514 -34.412)"/><path class="e" d="M32.779,34.2a.318.318,0,0,0-.418,0L28.6,37.962a.318.318,0,0,0,0,.418c.1.1.1.1.209.1s.209,0,.209-.1l3.758-3.758C32.884,34.621,32.884,34.412,32.779,34.2Z" transform="translate(-12.421 -34.412)"/><path class="e" d="M34.879,34.2a.318.318,0,0,0-.418,0L30.7,37.962a.318.318,0,0,0,0,.418c.1.1.1.1.209.1s.209,0,.209-.1l3.758-3.758C34.984,34.621,34.984,34.412,34.879,34.2Z" transform="translate(-12.329 -34.412)"/><path class="e" d="M36.979,34.2a.318.318,0,0,0-.418,0L32.8,37.962a.318.318,0,0,0,0,.418c.1.1.1.1.209.1s.209,0,.209-.1l3.758-3.758C37.084,34.621,37.084,34.412,36.979,34.2Z" transform="translate(-12.236 -34.412)"/><path class="e" d="M42.131,35.3a.318.318,0,0,0-.418,0l-2.61,2.61a.318.318,0,0,0,0,.418c.1.1.1.1.209.1s.209,0,.209-.1l2.61-2.61A.218.218,0,0,0,42.131,35.3Z" transform="translate(-11.959 -34.364)"/><path class="e" d="M41.179,34.2a.318.318,0,0,0-.418,0L37,37.962a.318.318,0,0,0,0,.418c.1.1.1.1.209.1s.209,0,.209-.1l3.758-3.758C41.284,34.621,41.284,34.412,41.179,34.2Z" transform="translate(-12.051 -34.412)"/><path class="e" d="M39.079,34.2a.318.318,0,0,0-.418,0L34.9,37.962a.318.318,0,0,0,0,.418c.1.1.1.1.209.1s.209,0,.209-.1l3.758-3.758C39.184,34.621,39.184,34.412,39.079,34.2Z" transform="translate(-12.144 -34.412)"/></g></g></g></svg>