<svg xmlns="http://www.w3.org/2000/svg" xmlns:xlink="http://www.w3.org/1999/xlink" viewBox="-6167.509 360 51.685 42.841"><defs><style>.a{fill:#60a5aa;}.b{fill:#484b52;}.c{fill:#fff;}.d{clip-path:url(#a);}.e{fill:#e6e7e8;}</style><clipPath id="a"><path d="M38.268,41.594H32.176A1.405,1.405,0,0,1,30.8,40.218V25.676A1.405,1.405,0,0,1,32.176,24.3h6.092a1.405,1.405,0,0,1,1.376,1.376V40.218A1.343,1.343,0,0,1,38.268,41.594Z" transform="translate(-30.8 -24.3)"/></clipPath></defs><g transform="translate(-6167.509 360)"><path class="a" d="M72.785,20.438,47.041,0,21.1,20.438l.688.786L46.942,1.277,72.2,21.224Z" transform="translate(-21.1)"/><path class="b" d="M68.345,20.308a1.356,1.356,0,0,0-.393-.295L48.1,4.095a1.331,1.331,0,0,0-1.67,0L26.486,19.915a2.143,2.143,0,0,0-.491.393,1.9,1.9,0,0,0-.295.983V42.907h.983V21.29a.361.361,0,0,1,.1-.295l.2-.2L46.924,4.881a.3.3,0,0,1,.2-.1.361.361,0,0,1,.295.1L67.46,20.7h.1l.1.1a.361.361,0,0,1,.1.295V42.711h.983V21.388A1.478,1.478,0,0,0,68.345,20.308Z" transform="translate(-21.18 -0.066)"/><path class="c" d="M38.652,42.076H31.774A1.511,1.511,0,0,1,30.3,40.6V25.274A1.511,1.511,0,0,1,31.774,23.8h6.878a1.511,1.511,0,0,1,1.474,1.474V40.6A1.511,1.511,0,0,1,38.652,42.076Z" transform="translate(-21.26 -0.414)"/><path class="b" d="M38.35,42.559H32.16A2.224,2.224,0,0,1,29.9,40.3V25.56a2.224,2.224,0,0,1,2.26-2.26h6.19a2.224,2.224,0,0,1,2.26,2.26V40.3A2.224,2.224,0,0,1,38.35,42.559ZM32.16,24.283a1.3,1.3,0,0,0-1.277,1.277V40.3a1.3,1.3,0,0,0,1.277,1.277h6.19A1.3,1.3,0,0,0,39.628,40.3V25.56a1.3,1.3,0,0,0-1.277-1.277Z" transform="translate(-21.253 -0.406)"/><g transform="translate(9.531 23.877)"><g class="d"><path class="a" d="M9.2,24.138c.1,0,.1,0,.2-.1l2.751-2.948a.278.278,0,0,0-.393-.393L9,23.646a.3.3,0,0,0,0,.393C9,24.138,9.1,24.138,9.2,24.138Z" transform="translate(-30.419 -24.236)"/><path class="a" d="M18.241,42.116l3.144-3.341h0l2.26-2.456h0l3.144-3.341h0l2.751-2.948h0l3.144-3.341h0l2.26-2.456h0l.393-.393h0l2.751-2.948A.278.278,0,0,0,37.7,20.5l-.983.983h0l-2.063,2.162h0L31.7,27.18h0l-2.26,2.456h0L26.3,32.978h0l-2.751,2.948h0L20.4,39.266h0l-2.26,2.456h0L15,45.064a.3.3,0,0,0,0,.393c.1.1.1.1.2.1s.1,0,.2-.1l2.85-3.341Z" transform="translate(-30.524 -24.233)"/><path class="a" d="M14.247,23.843,11.1,27.184h0L8.843,29.64h0L5.7,32.981a.3.3,0,0,0,0,.393c.1.1.1.1.2.1s.1,0,.2-.1L9.138,30.23h0l3.144-3.341h0l2.26-2.456h0l3.144-3.341a.278.278,0,1,0-.393-.393l-3.046,3.144Z" transform="translate(-30.362 -24.236)"/><path class="a" d="M16.1,23.841l-3.144,3.341h0L10.7,29.639h0L7.553,32.979h0L5,35.632a.3.3,0,0,0,0,.393c.1.1.1.1.2.1s.1,0,.2-.1l2.751-2.948h0l2.751-2.948h0l3.144-3.341h0l2.26-2.456h0l3.144-3.341a.278.278,0,1,0-.393-.393L16.1,23.841Z" transform="translate(-30.35 -24.234)"/><path class="a" d="M20.14,42.116l3.144-3.341h0l2.26-2.456h0l3.144-3.341h0l2.751-2.948h0l.393-.393h0l2.751-2.948h0l2.26-2.456h0l3.144-3.341a.278.278,0,0,0-.393-.393l-3.046,3.144h0l-.983.983h0L33.4,26.984h0l-.2.2h0l-2.063,2.162h0L28,32.683h0l-2.751,2.948h0L22.1,38.972h0l-2.162,2.555h0L16.8,44.867a.3.3,0,0,0,0,.393c.1.1.1.1.2.1s.1,0,.2-.1l2.948-3.144Z" transform="translate(-30.555 -24.233)"/><path class="a" d="M5.493,29.835c.1,0,.1,0,.2-.1l2.751-2.948h0l2.26-2.456h0l3.144-3.341a.278.278,0,0,0-.393-.393l-3.046,3.144h0L7.655,26.691h0L5.2,29.246a.3.3,0,0,0,0,.393C5.3,29.835,5.4,29.835,5.493,29.835Z" transform="translate(-30.353 -24.234)"/><path class="a" d="M4.3,32.979c.1,0,.1,0,.2-.1L7.145,30.13h0l3.144-3.341h0l2.26-2.456h0l3.144-3.341A.278.278,0,1,0,15.3,20.6l-3.046,3.144h0L9.11,27.084h0L6.948,29.639h0L4.2,32.586c-.2.1-.2.2-.1.393Z" transform="translate(-30.334 -24.234)"/><path class="a" d="M25.84,42.116l3.144-3.341h0l2.26-2.456h0l.393-.393h0l2.751-2.948h0l2.751-2.948h0l3.144-3.341h0l2.26-2.456h0l3.144-3.341a.278.278,0,0,0-.393-.393l-3.046,3.144h0L39.1,26.984h0l-2.26,2.456h0L33.7,32.781h0l-.688.786h0l-2.063,2.162h0L27.9,39.168h0l-2.26,2.456h0L22.5,44.965a.3.3,0,0,0,0,.393c.1.1.1.1.2.1s.1,0,.2-.1l2.948-3.243Z" transform="translate(-30.654 -24.233)"/><path class="a" d="M27.741,42.116l.393-.393h0l2.751-2.948h0l2.26-2.456h0l3.144-3.341h0l2.751-2.948h0l3.144-3.341h0l2.26-2.456h0l3.144-3.341A.278.278,0,0,0,47.2,20.5l-3.046,3.144h0l-3.144,3.341h0l-2.26,2.456h0L35.8,32.879h0l-2.751,2.948h0l-.983.983h0L29.9,39.168h0l-.2.2h0l-2.063,2.162h0L24.5,44.867a.3.3,0,0,0,0,.393c.1.1.1.1.2.1s.1,0,.2-.1l2.85-3.144Z" transform="translate(-30.689 -24.233)"/><path class="a" d="M1.5,41.821c.1,0,.1,0,.2-.1l2.751-2.948h0L6.7,36.319h0l3.144-3.341h0L12.6,30.03h0l3.144-3.341h0L18,24.233h0l3.144-3.341a.278.278,0,0,0-.393-.393L17.71,23.643h0L14.762,27.18h0L12.5,29.637h0L9.358,32.978h0L6.606,35.925h0L3.855,38.873h0L1.4,41.428a.3.3,0,0,0,0,.393Z" transform="translate(-30.287 -24.233)"/><path class="a" d="M5.041,42.116l3.144-3.341h0l2.26-2.456h0l3.144-3.341h0l2.751-2.948h0l3.144-3.341h0l2.26-2.456h0l3.144-3.341A.278.278,0,1,0,24.5,20.5l-2.85,3.341h0L18.5,27.18h0l-2.26,2.456h0L13.1,32.978h0l-2.751,2.948h0L7.2,39.266h0l-2.26,2.456h0L1.8,45.064a.3.3,0,0,0,0,.393c.1.1.1.1.2.1s.1,0,.2-.1l2.85-3.341Z" transform="translate(-30.294 -24.233)"/><path class="a" d="M3.145,42.116l3.144-3.341h0l2.26-2.456h0l3.144-3.341h0l2.751-2.948h0l3.144-3.341h0l2.26-2.456h0l3.144-3.341A.278.278,0,0,0,22.6,20.5l-3.046,3.144h0L16.41,26.984h0L14.15,29.44h0l-3.144,3.341h0L8.254,35.729h0L5.11,39.07h0L2.85,41.526h0L.1,44.474a.3.3,0,0,0,0,.393c.1.1.1.1.2.1s.1,0,.2-.1l2.653-2.751Z" transform="translate(-30.264 -24.233)"/><path class="a" d="M6.938,42.116l3.144-3.341h0l2.26-2.456h0l3.144-3.341h0l2.751-2.948h0l3.144-3.341h0l2.26-2.456h0l3.144-3.341a.278.278,0,0,0-.393-.393l-3.046,3.144h0L20.2,26.984h0l-2.26,2.456h0L14.8,32.781h0l-2.751,2.948h0L8.9,39.07h0l-2.26,2.456h0L3.5,44.867a.3.3,0,0,0,0,.393c.1.1.1.1.2.1s.1,0,.2-.1l3.046-3.144Z" transform="translate(-30.324 -24.233)"/><path class="a" d="M8.84,42.116l3.144-3.341h0l2.26-2.456h0l3.144-3.341h0l2.751-2.948h0l3.144-3.341h0l2.26-2.456h0l3.144-3.341a.278.278,0,0,0-.393-.393l-3.046,3.144h0L22.1,26.984h0l-2.26,2.456h0L16.8,32.879h0l-2.751,2.948h0L10.9,39.168h0l-2.26,2.456h0L5.5,44.965a.3.3,0,0,0,0,.393c.1.1.1.1.2.1s.1,0,.2-.1L8.84,42.116Z" transform="translate(-30.358 -24.233)"/><path class="a" d="M10.738,42.116l3.144-3.341h0l2.26-2.456h0l3.144-3.341h0l2.751-2.948h0l3.144-3.341h0l2.26-2.456h0l3.144-3.341a.278.278,0,0,0-.393-.393l-3.046,3.144h0L24,26.984h0l-2.26,2.456h0L18.6,32.781h0l-2.751,2.948h0L12.7,39.07h0l-2.26,2.456h0L7.3,44.867a.3.3,0,0,0,0,.393c.1.1.1.1.2.1s.1,0,.2-.1l3.046-3.144Z" transform="translate(-30.39 -24.233)"/><path class="a" d="M12.541,42.116l3.144-3.341h0l2.26-2.456h0l3.144-3.341h0l2.751-2.948h0l3.144-3.341h0l2.26-2.456h0l3.144-3.341A.278.278,0,1,0,32,20.5l-3.046,3.144h0l-3.144,3.341h0l-2.063,2.653h0L20.6,32.978h0l-2.751,2.948h0L14.7,39.266h0l-2.26,2.456h0L9.3,45.064a.3.3,0,0,0,0,.393c.1.1.1.1.2.1s.1,0,.2-.1l2.85-3.341Z" transform="translate(-30.425 -24.233)"/><path class="a" d="M14.438,42.116l3.144-3.341h0l2.26-2.456h0l3.144-3.341h0l2.751-2.948h0l3.144-3.341h0l2.26-2.456h0l3.144-3.341a.278.278,0,0,0-.393-.393l-3.046,3.144h0L27.7,26.984h0l-2.26,2.456h0L22.3,32.781h0l-2.751,2.948h0L16.4,39.07h0l-2.26,2.456h0L11,44.867a.3.3,0,0,0,0,.393c.1.1.1.1.2.1s.1,0,.2-.1l3.046-3.144Z" transform="translate(-30.454 -24.233)"/><path class="a" d="M16.34,42.116l3.144-3.341h0l2.26-2.456h0l3.144-3.341h0l2.751-2.948h0l3.144-3.341h0l2.26-2.456h0l3.144-3.341a.278.278,0,0,0-.393-.393l-3.046,3.144h0L29.6,26.984h0l-2.26,2.456h0L24.2,32.781h0l-2.751,2.948h0L18.3,39.07h0l-2.26,2.456h0L13,44.867a.3.3,0,0,0,0,.393c.1.1.1.1.2.1s.1,0,.2-.1l2.948-3.144Z" transform="translate(-30.489 -24.233)"/><path class="a" d="M22.041,42.118l3.144-3.341h0l2.26-2.456h0l3.144-3.341h0l.1-.1h0l2.653-2.751h0l3.144-3.341h0l2.26-2.456h0l3.144-3.341A.278.278,0,0,0,41.5,20.6l-2.85,3.243h0L35.5,27.182h0l-2.26,2.456h0l-.983.983h0L30.1,32.979h0l-2.751,2.948h0L24.2,39.268h0l-2.26,2.456h0L18.8,45.065a.3.3,0,0,0,0,.393c.1.1.1.1.2.1s.1,0,.2-.1l2.85-3.341Z" transform="translate(-30.59 -24.234)"/><path class="a" d="M23.938,42.118l3.144-3.341h0l2.26-2.456h0l2.948-3.046h0l3.046-3.144h0l3.144-3.341h0l2.26-2.456h0l3.144-3.341a.278.278,0,1,0-.393-.393l-3.046,3.144h0L37.3,27.084h0l-2.26,2.456h0l-2.948,3.046h0l-3.046,3.144h0L25.9,39.072h0l-2.26,2.456h0L20.5,44.869a.3.3,0,0,0,0,.393c.1.1.1.1.2.1s.1,0,.2-.1l3.046-3.144Z" transform="translate(-30.619 -24.234)"/><path class="a" d="M63.9,21.7a.3.3,0,0,0-.393,0L61.445,23.86h0L58.3,27.2h0l-2.26,2.456h0L52.8,32.9h0l-2.751,2.948h0L46.9,39.189h0l-2.26,2.456h0L41.5,44.986a.3.3,0,0,0,0,.393c.1.1.1.1.2.1s.1,0,.2-.1l3.046-3.144h0l3.144-3.341h0l2.26-2.456h0L53.486,33.1h0l2.751-2.948h0l3.144-3.341h0l2.26-2.456h0L63.8,21.993C64,21.993,64,21.8,63.9,21.7Z" transform="translate(-30.985 -24.253)"/><path class="a" d="M62.363,24.9,60.2,27.257c0,.1-.1.1-.1.2-.1,0-.1,0-.2.1l-2.063,2.162h0L54.7,33.054h0L51.947,36h0L48.8,39.343h0L46.543,41.8h0L43.4,45.14a.3.3,0,0,0,0,.393c.1.1.1.1.2.1s.1,0,.2-.1l3.046-3.144h0l3.144-3.341h0l2.26-2.456h0l3.144-3.341h0L58.138,30.3h0L60.3,27.945c0-.1.1-.1.1-.2.1,0,.1,0,.2-.1l2.162-2.358a.278.278,0,0,0-.393-.393Z" transform="translate(-31.018 -24.309)"/><path class="a" d="M59.611,33.9,57.547,36.06h0L54.4,39.4h0l-2.26,2.456h0L49,45.1a.3.3,0,0,0,0,.393c.1.1.1.1.2.1s.1,0,.2-.1l3.046-3.144h0l3.144-3.341h0l2.26-2.456h0L60,34.193a.3.3,0,0,0,0-.393A.591.591,0,0,0,59.611,33.9Z" transform="translate(-31.115 -24.465)"/><path class="a" d="M58.563,37.1,56.4,39.457c0,.1-.1.1-.1.2-.1,0-.1,0-.2.1l-2.063,2.162h0L50.9,45.254a.3.3,0,0,0,0,.393c.1.1.1.1.2.1s.1,0,.2-.1L54.338,42.5h0L56.5,40.145c0-.1.1-.1.1-.2.1,0,.1,0,.2-.1l2.162-2.358a.3.3,0,0,0,0-.393C58.759,37,58.661,37,58.563,37.1Z" transform="translate(-31.149 -24.521)"/><path class="a" d="M31.541,42.116l3.144-3.341h0l2.26-2.456h0l3.144-3.341h0l2.751-2.948h0l3.144-3.341h0l2.26-2.456h0l3.144-3.341A.278.278,0,0,0,51,20.5l-3.046,3.144h0l-3.144,3.341h0l-2.063,2.653h0L39.6,32.978h0l-2.751,2.948h0L33.7,39.266h0l-2.26,2.456h0L28.3,45.064a.3.3,0,0,0,0,.393c.1.1.1.1.2.1s.1,0,.2-.1l2.85-3.341Z" transform="translate(-30.755 -24.233)"/><path class="a" d="M29.638,42.116h0l3.144-3.341h0l2.26-2.456h0l3.144-3.341h0l2.751-2.948h0l3.144-3.341h0l2.26-2.456h0l3.144-3.341a.278.278,0,0,0-.393-.393l-3.046,3.144h0L42.9,26.984h0l-2.26,2.456h0L37.5,32.781h0l-2.751,2.948h0L31.6,39.07h0l-2.26,2.456h0l-.983.983h0L26.2,44.867a.3.3,0,0,0,0,.393c.1.1.1.1.2.1s.1,0,.2-.1l.393-.393h0Z" transform="translate(-30.719 -24.233)"/><path class="a" d="M33.438,42.116l3.144-3.341h0l2.26-2.456h0l3.144-3.341h0l2.751-2.948h0l3.144-3.341h0l2.26-2.456h0l3.144-3.341a.278.278,0,0,0-.393-.393l-3.046,3.144h0L46.7,26.984h0l-2.26,2.456h0L41.3,32.781h0l-2.751,2.948h0L35.4,39.07h0l-2.26,2.456h0L30,44.867a.3.3,0,0,0,0,.393c.1.1.1.1.2.1s.1,0,.2-.1l3.046-3.144Z" transform="translate(-30.785 -24.233)"/><path class="a" d="M35.338,42.116l3.144-3.341h0l2.26-2.456h0l3.144-3.341h0l2.751-2.948h0l3.144-3.341h0l2.26-2.456h0l3.144-3.341a.278.278,0,0,0-.393-.393l-3.046,3.144h0L48.6,26.984h0l-2.26,2.456h0L43.2,32.781h0l-2.751,2.948h0L37.3,39.07h0l-2.26,2.456h0L31.9,44.867a.3.3,0,0,0,0,.393c.1.1.1.1.2.1s.1,0,.2-.1l3.046-3.144Z" transform="translate(-30.818 -24.233)"/><path class="a" d="M37.238,42.116l3.144-3.341h0l2.26-2.456h0l3.144-3.341h0l2.751-2.948h0l3.144-3.341h0l2.26-2.456h0l3.144-3.341a.278.278,0,1,0-.393-.393l-3.046,3.144h0L50.7,27.18h0l-2.26,2.456h0L45.3,32.978h0l-2.751,2.948h0L39.4,39.266h0l-2.456,2.26h0L33.8,44.867a.3.3,0,0,0,0,.393c.1.1.1.1.2.1s.1,0,.2-.1l3.046-3.144Z" transform="translate(-30.851 -24.233)"/><path class="a" d="M39.138,42.116l3.144-3.341h0l2.26-2.456h0l3.144-3.341h0l2.751-2.948h0l3.144-3.341h0l2.26-2.456h0l3.144-3.341a.278.278,0,0,0-.393-.393l-3.046,3.144h0L52.4,26.984h0l-2.26,2.456h0L47,32.781h0l-2.751,2.948h0L41.1,39.07h0l-2.26,2.456h0L35.7,44.867a.3.3,0,0,0,0,.393c.1.1.1.1.2.1s.1,0,.2-.1l3.046-3.144Z" transform="translate(-30.884 -24.233)"/><path class="a" d="M41.041,42.116l3.144-3.341h0l2.26-2.456h0l3.144-3.341h0l2.751-2.948h0l3.144-3.341h0l2.26-2.456h0l3.144-3.341A.278.278,0,0,0,60.5,20.5l-2.85,3.341h0L54.5,27.18h0l-2.26,2.456h0L49.1,32.978h0l-2.751,2.948h0L43.2,39.266h0l-2.26,2.456h0L37.8,45.064a.3.3,0,0,0,0,.393c.1.1.1.1.2.1s.1,0,.2-.1l2.85-3.341Z" transform="translate(-30.921 -24.233)"/><path class="a" d="M42.938,42.116l3.144-3.341h0l2.26-2.456h0l3.144-3.341h0l2.751-2.948h0l3.144-3.341h0l2.26-2.456h0l3.144-3.341a.278.278,0,0,0-.393-.393l-3.046,3.144h0L56.2,26.984h0l-2.26,2.456h0L50.8,32.781h0l-2.751,2.948h0L44.9,39.07h0l-2.26,2.456h0L39.5,44.867a.3.3,0,0,0,0,.393c.1.1.1.1.2.1s.1,0,.2-.1l3.046-3.144Z" transform="translate(-30.95 -24.233)"/><path class="a" d="M48.54,42.293l3.144-3.341h0l2.26-2.456h0l3.144-3.341h0l1.965-2.063a.278.278,0,1,0-.393-.393L56.5,33.057h0L53.747,36h0L50.6,39.346h0L48.343,41.8h0L45.2,45.143a.3.3,0,0,0,0,.393c.1.1.1.1.2.1s.1,0,.2-.1l2.948-3.243Z" transform="translate(-31.049 -24.41)"/><path class="a" d="M50.438,42.33l3.144-3.341h0l2.26-2.456h0l3.144-3.341a.278.278,0,0,0-.393-.393l-3.046,3.144h0L52.4,39.284h0l-2.26,2.456h0L47,45.081a.3.3,0,0,0,0,.393c.1.1.1.1.2.1s.1,0,.2-.1l3.046-3.144Z" transform="translate(-31.081 -24.447)"/><path class="a" d="M54.96,43,52.8,45.357a.3.3,0,0,0,0,.393c.1.1.1.1.2.1s.1,0,.2-.1l2.162-2.358A.278.278,0,1,0,54.96,43Z" transform="translate(-31.182 -24.624)"/></g></g><path class="b" d="M44,42V21.365A1.971,1.971,0,0,1,45.965,19.4h13.56a1.971,1.971,0,0,1,1.965,1.965V41.9L61,42Z" transform="translate(-21.499 -0.338)"/><path class="e" d="M45.983,20.4a.985.985,0,0,0-.983.983V40.445a.672.672,0,0,0,.688.688H59.935a.672.672,0,0,0,.688-.688V21.383a.985.985,0,0,0-.983-.983Z" transform="translate(-21.516 -0.355)"/><path class="a" d="M54.186,32.618h0a.759.759,0,0,1-.786-.688V28.786A.775.775,0,0,1,54.186,28h0a.775.775,0,0,1,.786.786V31.93A.759.759,0,0,1,54.186,32.618Z" transform="translate(-21.662 -0.487)"/><path class="a" d="M51.386,32.618h0a.759.759,0,0,1-.786-.688V28.786A.775.775,0,0,1,51.386,28h0a.775.775,0,0,1,.786.786V31.93A.952.952,0,0,1,51.386,32.618Z" transform="translate(-21.613 -0.487)"/><rect class="b" width="0.197" height="22.403" transform="translate(31.148 19.161)"/></g></svg>