<svg xmlns="http://www.w3.org/2000/svg" viewBox="-6167.447 436.774 54.915 45.519"><defs><style>.a{fill:#60a5aa;}.b{fill:#484b52;}.c{fill:#e6e7e8;}.d{fill:#fff;}</style></defs><g transform="translate(-6167.447 436.774)"><path class="a" d="M54.915,21.715,27.457,0,0,21.715l.626.835L27.457,1.357,54.288,22.551Z"/><path class="b" d="M49.914,21.339a1.441,1.441,0,0,0-.418-.313L28.3,4.113a1.414,1.414,0,0,0-1.775,0L5.335,20.922a2.277,2.277,0,0,0-.522.418A2.014,2.014,0,0,0,4.5,22.383V45.352H5.544V22.383a.384.384,0,0,1,.1-.313l.209-.209,21.3-16.913a.323.323,0,0,1,.209-.1.384.384,0,0,1,.313.1L48.87,21.757h.1l.1.1a.384.384,0,0,1,.1.313V45.143h1.044V22.488A1.494,1.494,0,0,0,49.914,21.339Z" transform="translate(0.198 0.167)"/><path class="b" d="M38.637,43.663H16.4v-.522a20.969,20.969,0,0,1,1.879-7.621A13.513,13.513,0,0,1,22.768,30.4l.209-.1.313.1a8.3,8.3,0,0,0,8.248,0l.313-.1.209.1a11.969,11.969,0,0,1,4.489,5.116,20.969,20.969,0,0,1,1.879,7.621Z" transform="translate(0.722 1.333)"/><path class="c" d="M17.4,42.571H37.341a18.5,18.5,0,0,0-1.775-6.682A10.31,10.31,0,0,0,31.7,31.4a9.953,9.953,0,0,1-8.77,0,11.649,11.649,0,0,0-3.863,4.489A23.164,23.164,0,0,0,17.4,42.571Z" transform="translate(0.766 1.382)"/><path class="b" d="M27.242,30.784a5.953,5.953,0,0,1-4.072-1.67,5.749,5.749,0,1,1,9.814-4.072,5.953,5.953,0,0,1-1.67,4.072A5.358,5.358,0,0,1,27.242,30.784Z" transform="translate(0.946 0.849)"/><path class="d" d="M27.2,20.3A4.679,4.679,0,0,0,22.5,25a5.028,5.028,0,0,0,1.357,3.341A4.41,4.41,0,0,0,27.2,29.7a5.028,5.028,0,0,0,3.341-1.357A4.41,4.41,0,0,0,31.9,25,4.679,4.679,0,0,0,27.2,20.3Z" transform="translate(0.99 0.893)"/><ellipse class="a" cx="0.626" cy="0.626" rx="0.626" ry="0.626" transform="translate(22.551 34.765)"/><ellipse class="a" cx="0.626" cy="0.626" rx="0.626" ry="0.626" transform="translate(25.683 34.765)"/><ellipse class="a" cx="0.626" cy="0.626" rx="0.626" ry="0.626" transform="translate(28.815 34.765)"/><ellipse class="a" cx="0.626" cy="0.626" rx="0.626" ry="0.626" transform="translate(31.947 34.765)"/><ellipse class="a" cx="0.626" cy="0.626" rx="0.626" ry="0.626" transform="translate(24.221 36.958)"/><ellipse class="a" cx="0.626" cy="0.626" rx="0.626" ry="0.626" transform="translate(27.353 36.958)"/><ellipse class="a" cx="0.626" cy="0.626" rx="0.626" ry="0.626" transform="translate(30.485 36.958)"/><ellipse class="a" cx="0.626" cy="0.626" rx="0.626" ry="0.626" transform="translate(33.617 36.958)"/><ellipse class="a" cx="0.626" cy="0.626" rx="0.626" ry="0.626" transform="translate(21.193 36.958)"/><ellipse class="a" cx="0.626" cy="0.626" rx="0.626" ry="0.626" transform="translate(26.1 39.255)"/><ellipse class="a" cx="0.626" cy="0.626" rx="0.626" ry="0.626" transform="translate(29.232 39.255)"/><ellipse class="a" cx="0.626" cy="0.626" rx="0.626" ry="0.626" transform="translate(32.364 39.255)"/><ellipse class="a" cx="0.626" cy="0.626" rx="0.626" ry="0.626" transform="translate(35.496 39.255)"/><ellipse class="a" cx="0.626" cy="0.626" rx="0.626" ry="0.626" transform="translate(22.968 39.255)"/><ellipse class="a" cx="0.626" cy="0.626" rx="0.626" ry="0.626" transform="translate(19.836 39.255)"/><ellipse class="a" cx="0.626" cy="0.626" rx="0.626" ry="0.626" transform="translate(27.666 41.447)"/><ellipse class="a" cx="0.626" cy="0.626" rx="0.626" ry="0.626" transform="translate(30.798 41.447)"/><ellipse class="a" cx="0.626" cy="0.626" rx="0.626" ry="0.626" transform="translate(33.93 41.447)"/><ellipse class="a" cx="0.626" cy="0.626" rx="0.626" ry="0.626" transform="translate(24.639 41.447)"/><ellipse class="a" cx="0.626" cy="0.626" rx="0.626" ry="0.626" transform="translate(21.507 41.447)"/></g></svg>