<svg id="Layer_1" data-name="Layer 1" xmlns="http://www.w3.org/2000/svg" viewBox="0 0 802.03 407.54"><defs><style>.cls-1{fill:#e3710a;}.cls-2{fill:#fff;}</style></defs><title>Vector Smart Object</title><path class="cls-1" d="M757.22,117.57H258.62A83.86,83.86,0,0,0,175,201.19V356.29A35.72,35.72,0,0,0,210.68,392h498.6a83.86,83.86,0,0,0,83.62-83.61V153.25a35.72,35.72,0,0,0-35.68-35.67" transform="translate(-74.27 -117.57)"/><path class="cls-2" d="M492.1,292.63H485.7c-1.82-.12-2.34-0.64-2.47-2.46V206.08c0-4-.9-7.14-3-9.26s-5.26-3-9.26-3H451.12a1.12,1.12,0,0,0-.8.33,1.1,1.1,0,0,0-.34.8v17.7a1.14,1.14,0,0,0,1.13,1.14h6.56c1.9,0.16,2.3.46,2.46,2.47v83.91c0,4.07.84,7.21,3,9.33s5.24,3,9.29,3H492.1a1.15,1.15,0,0,0,.81-0.34,1.1,1.1,0,0,0,.34-0.8V293.77a1.16,1.16,0,0,0-.34-0.8,1.13,1.13,0,0,0-.81-0.34" transform="translate(-74.27 -117.57)"/><path class="cls-2" d="M411.23,224.61c-12.8,0-23.75,4.62-31.44,12.58s-12.15,19.2-12.15,32.32A44.9,44.9,0,0,0,380,301.1c8,8.19,19.53,13.32,33.65,13.32a52,52,0,0,0,34.4-12.95,1.13,1.13,0,0,0,.17-1.39l-8.68-14.43a1.18,1.18,0,0,0-.82-0.54,1.15,1.15,0,0,0-.94.29,35,35,0,0,1-6.46,4.51,33.59,33.59,0,0,1-16.19,4.53c-11.81-.06-21.72-6.82-23.78-20.18h56.39a1.14,1.14,0,0,0,1.13-1s0.5-5.24.5-7.81c0-11.29-3.35-21.48-9.83-28.88s-16.1-11.93-28.35-11.92m-19,32.94c2.56-9.22,9.33-14.56,19-14.61,7.54,0,13.71,5.77,14.52,14.61H392.2Z" transform="translate(-74.27 -117.57)"/><path class="cls-2" d="M731.09,292.55a1.12,1.12,0,0,0-1-.22,17.58,17.58,0,0,1-3.52.3C721,292.5,711.24,291,711.19,278V245.41h17.87a1.15,1.15,0,0,0,1.14-1.14V227.71a1.16,1.16,0,0,0-.34-0.8,1.14,1.14,0,0,0-.8-0.34H711.19V204.93a1.13,1.13,0,0,0-1.14-1.14H689.73a1.15,1.15,0,0,0-.8.33,1.16,1.16,0,0,0-.34.81v21.64H678.42a1.14,1.14,0,0,0-1.14,1.14v16.55a1.17,1.17,0,0,0,.33.81,1.16,1.16,0,0,0,.81.33h9.67v35.25c0,14.33,6,22.71,13.57,27.22s16.39,5.38,22.32,5.39a40,40,0,0,0,6.6-.51,1.15,1.15,0,0,0,.92-1.12V293.44a1.12,1.12,0,0,0-.42-0.89" transform="translate(-74.27 -117.57)"/><path class="cls-2" d="M543.55,224.61c-12.8,0-23.74,4.63-31.44,12.58S500,256.39,500,269.51a44.89,44.89,0,0,0,12.39,31.59c8,8.19,19.53,13.31,33.66,13.31a52,52,0,0,0,34.39-12.95,1.13,1.13,0,0,0,.18-1.39l-8.69-14.43a1.14,1.14,0,0,0-.82-0.54,1.17,1.17,0,0,0-.94.29,35.61,35.61,0,0,1-6.46,4.52,33.72,33.72,0,0,1-16.2,4.52c-11.8-.06-21.71-6.82-23.78-20.18H580.1a1.14,1.14,0,0,0,1.13-1s0.49-5.24.5-7.81c0-11.29-3.35-21.48-9.83-28.88s-16.11-11.93-28.35-11.92m-19,32.95c2.56-9.21,9.33-14.57,19-14.61,7.55,0,13.72,5.77,14.53,14.61H524.52Z" transform="translate(-74.27 -117.57)"/><path class="cls-2" d="M665.14,283.18a1.13,1.13,0,0,0-.85-0.55,1.14,1.14,0,0,0-1,.36,37.9,37.9,0,0,1-6.8,5.47c-4.29,2.76-10.29,5.48-17.11,5.48-13-.07-24.88-8.19-24.92-24.6,0.05-14.55,9.81-24.89,23.61-24.92a19,19,0,0,1,7.42,1.46c2.19,1,3.42,2.31,3.4,4v4.59a1.14,1.14,0,0,0,1.14,1.14h18.36a1.13,1.13,0,0,0,.8-0.33,1.15,1.15,0,0,0,.33-0.81V244.6c0-7.8-5.34-12.9-11.76-15.87a49.44,49.44,0,0,0-19.7-4.13c-14.6,0-26.36,5.16-34.43,13.38a44.57,44.57,0,0,0-12.44,31.53c0,12.4,4.54,23.65,12.63,31.77s19.71,13.12,33.75,13.12a48.92,48.92,0,0,0,36.12-15.49,1.13,1.13,0,0,0,.1-1.31Z" transform="translate(-74.27 -117.57)"/><path class="cls-2" d="M330.82,244.06c-6.88-3.15-13.71-5.71-18.71-8.65s-8-6.13-8-10.47c0-6.5,6.4-11.27,15.91-11.32A21.69,21.69,0,0,1,330.07,216c2.7,1.49,4.23,3.43,4.21,5.54v5.24a1.13,1.13,0,0,0,.34.8,1.14,1.14,0,0,0,.8.33h19.35a1.13,1.13,0,0,0,1.13-1.13V215.92c0-8.81-5.64-14.94-12.79-18.69a51.61,51.61,0,0,0-22.92-5.39c-22.9,0-39.94,14.33-40,33.92,0,18.81,14.31,27.8,28,34.38,13.9,6.56,27,11.38,26.73,20,0,8.21-7.06,12.57-15.57,12.63-7.78,0-14.63-3.32-19.54-6.68a45.56,45.56,0,0,1-7.79-6.7,1.13,1.13,0,0,0-.88-0.39,1.12,1.12,0,0,0-.86.43l-12.13,15.08a1.13,1.13,0,0,0,0,1.42A54.69,54.69,0,0,0,319,314.41h0c12.44,0,22.42-4,29.26-10.49A33.82,33.82,0,0,0,358.86,279c0-19.76-14.31-28.72-28-35" transform="translate(-74.27 -117.57)"/><path class="cls-2" d="M269.38,303.07c-3.35-3.89-2.72-12.12-2.78-12.94v-51.3c0-4-.84-7.13-2.92-9.26s-5.19-3-9.19-3H237.57a1.13,1.13,0,0,0-.8.33,1.14,1.14,0,0,0-.34.81v17.7a1.15,1.15,0,0,0,.34.81,1.16,1.16,0,0,0,.8.33h3.64c1.9,0.16,2.31.45,2.47,2.47v51.13c0,4.07.84,7.2,2.93,9.32s5.2,3,9.19,3h19.83a1.09,1.09,0,0,0,.8-0.33,1.12,1.12,0,0,0,.33-0.81v-1a55.7,55.7,0,0,1-7.38-7.25" transform="translate(-74.27 -117.57)"/><path class="cls-2" d="M251.73,217.32a12.18,12.18,0,1,0-12.18-12.18,12.19,12.19,0,0,0,12.18,12.18" transform="translate(-74.27 -117.57)"/><path class="cls-2" d="M98.68,457.37a45.48,45.48,0,0,0-20,4.13l3.65,11.15a37.87,37.87,0,0,1,14.22-2.79c7.3,0,11.05,3.36,11.05,9.42v0.86A36.65,36.65,0,0,0,95,478c-12.2,0-20.76,5.19-20.76,16.43v0.19c0,10.19,8,15.76,17.68,15.76,7.11,0,12-2.59,15.57-6.53v5.57h14.12V479.57c0-13.93-7-22.2-23-22.2m9.13,33.92c0,5.29-4.61,9-11.44,9-4.71,0-8-2.31-8-6.25v-0.19c0-4.61,3.84-7.11,10.09-7.11a22.63,22.63,0,0,1,9.32,1.92v2.59Z" transform="translate(-74.27 -117.57)"/><rect class="cls-2" x="55.16" y="321.73" width="14.61" height="70.15"/><polygon class="cls-2" points="131.75 371.7 121.95 340.18 109.36 340.18 99.66 371.6 91.39 340.37 76.6 340.37 92.45 392.26 105.52 392.26 115.61 360.65 125.51 392.26 138.67 392.26 154.72 340.37 140.21 340.37 131.75 371.7"/><path class="cls-2" d="M254.66,457.37a45.48,45.48,0,0,0-20,4.13l3.65,11.15a37.87,37.87,0,0,1,14.22-2.79c7.3,0,11.05,3.36,11.05,9.42v0.86A36.65,36.65,0,0,0,251,478c-12.2,0-20.76,5.19-20.76,16.43v0.19c0,10.19,8,15.76,17.68,15.76,7.11,0,12-2.59,15.57-6.53v5.57h14.13V479.57c0-13.93-7-22.2-23-22.2m9.13,33.92c0,5.29-4.61,9-11.44,9-4.71,0-8-2.31-8-6.25v-0.19c0-4.61,3.84-7.11,10.09-7.11a22.63,22.63,0,0,1,9.32,1.92v2.59Z" transform="translate(-74.27 -117.57)"/><path class="cls-2" d="M306.75,493L295,457.94H279.55l20.18,51.7c-1.25,2.59-2.59,3.36-5.09,3.36a13.28,13.28,0,0,1-6.25-2l-4.9,10.57a24.18,24.18,0,0,0,13,3.56c8.74,0,13-3.94,16.91-14.42l19.8-52.76H318Z" transform="translate(-74.27 -117.57)"/><path class="cls-2" d="M359.51,478.32C353.94,476.39,349,475,349,472.17V472c0-2,1.82-3.56,5.38-3.56,3.75,0,8.84,1.83,13.93,4.8l5.57-10.09a35.65,35.65,0,0,0-19.22-6c-10.38,0-18.83,5.86-18.83,16.34v0.19c0,10,8.17,13.36,15.38,15.47,5.67,1.73,10.67,2.78,10.67,6v0.19c0,2.31-1.92,3.84-6.15,3.84-4.8,0-10.67-2.11-16.24-6.15l-6.25,9.61a36.08,36.08,0,0,0,22.1,7.78c11.15,0,19.7-5.19,19.7-16.63v-0.19c0-9.42-8.36-12.88-15.57-15.28" transform="translate(-74.27 -117.57)"/><path class="cls-2" d="M442.16,464.67c-3.94-4.32-8.65-7.69-16.63-7.69-11.82,0-22.87,8.65-22.87,24v0.19c0,15.28,10.86,24,22.87,24,7.78,0,12.49-3.17,16.82-8.36v2.5c0,9.23-4.71,14-14.7,14a33.63,33.63,0,0,1-17.39-4.71l-5,11A48.91,48.91,0,0,0,428,525c19.12,0,28.73-7.79,28.73-27.2V457.94H442.16v6.73Zm0.19,16.53c0,7-5.48,11.92-12.59,11.92s-12.49-4.8-12.49-11.92V481c0-7,5.38-11.92,12.49-11.92S442.35,474,442.35,481v0.19Z" transform="translate(-74.27 -117.57)"/><path class="cls-2" d="M489,457c-15,0-25.47,12.11-25.47,26.81V484c0,15.76,11.44,26.62,26.91,26.62,9.32,0,16.24-3.65,21-9.61l-8.36-7.4c-4,3.75-7.59,5.29-12.49,5.29-6.53,0-11.15-3.46-12.59-10.09h35.84c0.1-1.35.19-2.21,0.19-3.65v-0.19c0-14.61-7.88-28-25.08-28m-11.15,22.68c1.15-6.63,5.09-11,11.15-11s10,4.42,10.86,11h-22Z" transform="translate(-74.27 -117.57)"/><path class="cls-2" d="M538,444.78H523.37v13.17h-6.15v12.49h6.15v24.41c0,11.91,6.05,15.47,15,15.47a21.52,21.52,0,0,0,11.53-3V495.61a14.86,14.86,0,0,1-7.21,1.83c-3.27,0-4.71-1.63-4.71-5v-22h12.11V457.95H538V444.78Z" transform="translate(-74.27 -117.57)"/><rect class="cls-2" x="506.67" y="321.73" width="15.38" height="12.97"/><rect class="cls-2" x="507.05" y="340.37" width="14.61" height="51.51"/><path class="cls-2" d="M625.37,444.78H610.77v13.17h-6.15v12.49h6.15v24.41c0,11.91,6.05,15.47,15,15.47a21.53,21.53,0,0,0,11.53-3V495.61a14.86,14.86,0,0,1-7.21,1.83c-3.27,0-4.71-1.63-4.71-5v-22h12.11V457.95H625.37V444.78Z" transform="translate(-74.27 -117.57)"/><path class="cls-2" d="M684.09,468.32V457.95H669.49v51.51h14.61v-19c0-12.3,6-18.16,15.66-18.16h0.77V457c-8.65-.38-13.45,4.23-16.43,11.34" transform="translate(-74.27 -117.57)"/><rect class="cls-2" x="633.66" y="321.73" width="15.37" height="12.97"/><rect class="cls-2" x="634.04" y="340.37" width="14.61" height="51.51"/><path class="cls-2" d="M769.43,464.67c-3.94-4.32-8.65-7.69-16.62-7.69-11.82,0-22.87,8.65-22.87,24v0.19c0,15.28,10.86,24,22.87,24,7.78,0,12.49-3.17,16.82-8.36v2.5c0,9.23-4.71,14-14.7,14a33.63,33.63,0,0,1-17.39-4.71l-5,11A48.9,48.9,0,0,0,755.31,525c19.12,0,28.73-7.79,28.73-27.2V457.94H769.43v6.73Zm0.19,16.53c0,7-5.48,11.92-12.59,11.92s-12.49-4.8-12.49-11.92V481c0-7,5.38-11.92,12.49-11.92S769.62,474,769.62,481v0.19Z" transform="translate(-74.27 -117.57)"/><path class="cls-2" d="M821.71,457c-7.4,0-11.72,3.94-15.09,8.27V439.3H792v70.15h14.61V480.72c0-6.92,3.56-10.47,9.13-10.47s8.84,3.55,8.84,10.47v28.73H839.2V476.11c0-11.82-6.44-19.12-17.49-19.12" transform="translate(-74.27 -117.57)"/><path class="cls-2" d="M876.3,470.44V457.94H864.19V444.78H849.59v13.17h-6.15v12.49h6.15v24.41c0,11.92,6.05,15.47,15,15.47a21.54,21.54,0,0,0,11.53-3V495.61a14.84,14.84,0,0,1-7.21,1.83c-3.27,0-4.71-1.63-4.71-5v-22H876.3Z" transform="translate(-74.27 -117.57)"/></svg>