<svg xmlns="http://www.w3.org/2000/svg" viewBox="-9460.5 1233.5 36.919 42.934">
  <defs>
    <style>
      .cls-1 {
        fill: #484b52;
        stroke: #484b52;
        stroke-miterlimit: 10;
      }

      .cls-2 {
        fill: #fff;
      }

      .cls-3 {
        fill: #e6e7e8;
      }

      .cls-4 {
        fill: #60a5aa;
      }
    </style>
  </defs>
  <g id="Group_4972" data-name="Group 4972" transform="translate(-9460.5 1233.5)">
    <path id="Path_678" data-name="Path 678" class="cls-1" d="M31.263,42.434H5.656A5.17,5.17,0,0,1,.5,37.278V5.656A5.17,5.17,0,0,1,5.656.5H31.263a5.17,5.17,0,0,1,5.156,5.156V37.45A5.255,5.255,0,0,1,31.263,42.434Z" transform="translate(0 0)"/>
    <path id="Path_679" data-name="Path 679" class="cls-2" d="M5.3,1A4.255,4.255,0,0,0,1,5.3V37.09a4.182,4.182,0,0,0,4.125,4.125H30.732a4.182,4.182,0,0,0,4.125-4.125V5.3a4.182,4.182,0,0,0-4.125-4.125H5.3Z" transform="translate(0.359 0.359)"/>
    <g id="Group_4310" data-name="Group 4310" transform="translate(5.656 6.171)">
      <circle id="Ellipse_383" data-name="Ellipse 383" class="cls-3" cx="0.687" cy="0.687" r="0.687" transform="translate(10.827)"/>
      <circle id="Ellipse_384" data-name="Ellipse 384" class="cls-3" cx="0.687" cy="0.687" r="0.687" transform="translate(7.218)"/>
      <circle id="Ellipse_385" data-name="Ellipse 385" class="cls-3" cx="0.687" cy="0.687" r="0.687" transform="translate(3.609)"/>
      <circle id="Ellipse_386" data-name="Ellipse 386" class="cls-3" cx="0.687" cy="0.687" r="0.687"/>
      <circle id="Ellipse_387" data-name="Ellipse 387" class="cls-3" cx="0.687" cy="0.687" r="0.687" transform="translate(14.264)"/>
      <circle id="Ellipse_388" data-name="Ellipse 388" class="cls-3" cx="0.687" cy="0.687" r="0.687" transform="translate(17.873)"/>
      <circle id="Ellipse_389" data-name="Ellipse 389" class="cls-3" cx="0.687" cy="0.687" r="0.687" transform="translate(21.482)"/>
      <circle id="Ellipse_390" data-name="Ellipse 390" class="cls-3" cx="0.687" cy="0.687" r="0.687" transform="translate(25.091)"/>
      <circle id="Ellipse_391" data-name="Ellipse 391" class="cls-3" cx="0.687" cy="0.687" r="0.687" transform="translate(10.827 3.437)"/>
      <circle id="Ellipse_392" data-name="Ellipse 392" class="cls-3" cx="0.687" cy="0.687" r="0.687" transform="translate(7.218 3.437)"/>
      <circle id="Ellipse_393" data-name="Ellipse 393" class="cls-3" cx="0.687" cy="0.687" r="0.687" transform="translate(3.609 3.437)"/>
      <circle id="Ellipse_394" data-name="Ellipse 394" class="cls-3" cx="0.687" cy="0.687" r="0.687" transform="translate(0 3.437)"/>
      <circle id="Ellipse_395" data-name="Ellipse 395" class="cls-3" cx="0.687" cy="0.687" r="0.687" transform="translate(14.264 3.437)"/>
      <circle id="Ellipse_396" data-name="Ellipse 396" class="cls-3" cx="0.687" cy="0.687" r="0.687" transform="translate(17.873 3.437)"/>
      <circle id="Ellipse_397" data-name="Ellipse 397" class="cls-3" cx="0.687" cy="0.687" r="0.687" transform="translate(21.482 3.437)"/>
      <circle id="Ellipse_398" data-name="Ellipse 398" class="cls-3" cx="0.687" cy="0.687" r="0.687" transform="translate(25.091 3.437)"/>
      <circle id="Ellipse_399" data-name="Ellipse 399" class="cls-3" cx="0.687" cy="0.687" r="0.687" transform="translate(10.827 7.046)"/>
      <circle id="Ellipse_400" data-name="Ellipse 400" class="cls-3" cx="0.687" cy="0.687" r="0.687" transform="translate(7.218 7.046)"/>
      <circle id="Ellipse_401" data-name="Ellipse 401" class="cls-3" cx="0.687" cy="0.687" r="0.687" transform="translate(3.609 7.046)"/>
      <circle id="Ellipse_402" data-name="Ellipse 402" class="cls-3" cx="0.687" cy="0.687" r="0.687" transform="translate(0 7.046)"/>
      <circle id="Ellipse_403" data-name="Ellipse 403" class="cls-3" cx="0.687" cy="0.687" r="0.687" transform="translate(14.264 7.046)"/>
      <circle id="Ellipse_404" data-name="Ellipse 404" class="cls-3" cx="0.687" cy="0.687" r="0.687" transform="translate(17.873 7.046)"/>
      <circle id="Ellipse_405" data-name="Ellipse 405" class="cls-3" cx="0.687" cy="0.687" r="0.687" transform="translate(21.482 7.046)"/>
      <circle id="Ellipse_406" data-name="Ellipse 406" class="cls-3" cx="0.687" cy="0.687" r="0.687" transform="translate(25.091 7.046)"/>
    </g>
    <g id="Group_4311" data-name="Group 4311" transform="translate(5.656 16.998)">
      <circle id="Ellipse_407" data-name="Ellipse 407" class="cls-3" cx="0.687" cy="0.687" r="0.687" transform="translate(10.827)"/>
      <circle id="Ellipse_408" data-name="Ellipse 408" class="cls-3" cx="0.687" cy="0.687" r="0.687" transform="translate(7.218)"/>
      <circle id="Ellipse_409" data-name="Ellipse 409" class="cls-3" cx="0.687" cy="0.687" r="0.687" transform="translate(3.609)"/>
      <circle id="Ellipse_410" data-name="Ellipse 410" class="cls-3" cx="0.687" cy="0.687" r="0.687"/>
      <circle id="Ellipse_411" data-name="Ellipse 411" class="cls-3" cx="0.687" cy="0.687" r="0.687" transform="translate(14.264)"/>
      <circle id="Ellipse_412" data-name="Ellipse 412" class="cls-3" cx="0.687" cy="0.687" r="0.687" transform="translate(17.873)"/>
      <circle id="Ellipse_413" data-name="Ellipse 413" class="cls-3" cx="0.687" cy="0.687" r="0.687" transform="translate(21.482)"/>
      <circle id="Ellipse_414" data-name="Ellipse 414" class="cls-3" cx="0.687" cy="0.687" r="0.687" transform="translate(25.091)"/>
      <circle id="Ellipse_415" data-name="Ellipse 415" class="cls-3" cx="0.687" cy="0.687" r="0.687" transform="translate(10.827 3.437)"/>
      <circle id="Ellipse_416" data-name="Ellipse 416" class="cls-3" cx="0.687" cy="0.687" r="0.687" transform="translate(7.218 3.437)"/>
      <circle id="Ellipse_417" data-name="Ellipse 417" class="cls-3" cx="0.687" cy="0.687" r="0.687" transform="translate(3.609 3.437)"/>
      <circle id="Ellipse_418" data-name="Ellipse 418" class="cls-3" cx="0.687" cy="0.687" r="0.687" transform="translate(0 3.437)"/>
      <circle id="Ellipse_419" data-name="Ellipse 419" class="cls-3" cx="0.687" cy="0.687" r="0.687" transform="translate(14.264 3.437)"/>
      <circle id="Ellipse_420" data-name="Ellipse 420" class="cls-3" cx="0.687" cy="0.687" r="0.687" transform="translate(17.873 3.437)"/>
      <circle id="Ellipse_421" data-name="Ellipse 421" class="cls-3" cx="0.687" cy="0.687" r="0.687" transform="translate(21.482 3.437)"/>
      <circle id="Ellipse_422" data-name="Ellipse 422" class="cls-3" cx="0.687" cy="0.687" r="0.687" transform="translate(25.091 3.437)"/>
      <circle id="Ellipse_423" data-name="Ellipse 423" class="cls-3" cx="0.687" cy="0.687" r="0.687" transform="translate(10.827 7.046)"/>
      <circle id="Ellipse_424" data-name="Ellipse 424" class="cls-3" cx="0.687" cy="0.687" r="0.687" transform="translate(7.218 7.046)"/>
      <circle id="Ellipse_425" data-name="Ellipse 425" class="cls-3" cx="0.687" cy="0.687" r="0.687" transform="translate(3.609 7.046)"/>
      <circle id="Ellipse_426" data-name="Ellipse 426" class="cls-3" cx="0.687" cy="0.687" r="0.687" transform="translate(0 7.046)"/>
      <circle id="Ellipse_427" data-name="Ellipse 427" class="cls-3" cx="0.687" cy="0.687" r="0.687" transform="translate(14.264 7.046)"/>
      <circle id="Ellipse_428" data-name="Ellipse 428" class="cls-3" cx="0.687" cy="0.687" r="0.687" transform="translate(17.873 7.046)"/>
      <circle id="Ellipse_429" data-name="Ellipse 429" class="cls-3" cx="0.687" cy="0.687" r="0.687" transform="translate(21.482 7.046)"/>
      <circle id="Ellipse_430" data-name="Ellipse 430" class="cls-3" cx="0.687" cy="0.687" r="0.687" transform="translate(25.091 7.046)"/>
    </g>
    <g id="Group_4312" data-name="Group 4312" transform="translate(5.656 27.826)">
      <circle id="Ellipse_431" data-name="Ellipse 431" class="cls-3" cx="0.687" cy="0.687" r="0.687" transform="translate(10.827)"/>
      <circle id="Ellipse_432" data-name="Ellipse 432" class="cls-3" cx="0.687" cy="0.687" r="0.687" transform="translate(7.218)"/>
      <circle id="Ellipse_433" data-name="Ellipse 433" class="cls-3" cx="0.687" cy="0.687" r="0.687" transform="translate(3.609)"/>
      <circle id="Ellipse_434" data-name="Ellipse 434" class="cls-3" cx="0.687" cy="0.687" r="0.687"/>
      <circle id="Ellipse_435" data-name="Ellipse 435" class="cls-3" cx="0.687" cy="0.687" r="0.687" transform="translate(14.264)"/>
      <circle id="Ellipse_436" data-name="Ellipse 436" class="cls-3" cx="0.687" cy="0.687" r="0.687" transform="translate(17.873)"/>
      <circle id="Ellipse_437" data-name="Ellipse 437" class="cls-3" cx="0.687" cy="0.687" r="0.687" transform="translate(21.482)"/>
      <circle id="Ellipse_438" data-name="Ellipse 438" class="cls-3" cx="0.687" cy="0.687" r="0.687" transform="translate(25.091)"/>
      <circle id="Ellipse_439" data-name="Ellipse 439" class="cls-3" cx="0.687" cy="0.687" r="0.687" transform="translate(10.827 3.437)"/>
      <circle id="Ellipse_440" data-name="Ellipse 440" class="cls-3" cx="0.687" cy="0.687" r="0.687" transform="translate(7.218 3.437)"/>
      <circle id="Ellipse_441" data-name="Ellipse 441" class="cls-3" cx="0.687" cy="0.687" r="0.687" transform="translate(3.609 3.437)"/>
      <circle id="Ellipse_442" data-name="Ellipse 442" class="cls-3" cx="0.687" cy="0.687" r="0.687" transform="translate(0 3.437)"/>
      <circle id="Ellipse_443" data-name="Ellipse 443" class="cls-3" cx="0.687" cy="0.687" r="0.687" transform="translate(14.264 3.437)"/>
      <circle id="Ellipse_444" data-name="Ellipse 444" class="cls-3" cx="0.687" cy="0.687" r="0.687" transform="translate(17.873 3.437)"/>
      <circle id="Ellipse_445" data-name="Ellipse 445" class="cls-3" cx="0.687" cy="0.687" r="0.687" transform="translate(21.482 3.437)"/>
      <circle id="Ellipse_446" data-name="Ellipse 446" class="cls-3" cx="0.687" cy="0.687" r="0.687" transform="translate(25.091 3.437)"/>
      <circle id="Ellipse_447" data-name="Ellipse 447" class="cls-3" cx="0.687" cy="0.687" r="0.687" transform="translate(10.827 7.046)"/>
      <circle id="Ellipse_448" data-name="Ellipse 448" class="cls-3" cx="0.687" cy="0.687" r="0.687" transform="translate(7.218 7.046)"/>
      <circle id="Ellipse_449" data-name="Ellipse 449" class="cls-3" cx="0.687" cy="0.687" r="0.687" transform="translate(3.609 7.046)"/>
      <circle id="Ellipse_450" data-name="Ellipse 450" class="cls-3" cx="0.687" cy="0.687" r="0.687" transform="translate(0 7.046)"/>
      <circle id="Ellipse_451" data-name="Ellipse 451" class="cls-3" cx="0.687" cy="0.687" r="0.687" transform="translate(14.264 7.046)"/>
      <circle id="Ellipse_452" data-name="Ellipse 452" class="cls-3" cx="0.687" cy="0.687" r="0.687" transform="translate(17.873 7.046)"/>
      <circle id="Ellipse_453" data-name="Ellipse 453" class="cls-3" cx="0.687" cy="0.687" r="0.687" transform="translate(21.482 7.046)"/>
      <circle id="Ellipse_454" data-name="Ellipse 454" class="cls-3" cx="0.687" cy="0.687" r="0.687" transform="translate(25.091 7.046)"/>
    </g>
    <circle id="Ellipse_455" data-name="Ellipse 455" class="cls-4" cx="7.39" cy="7.39" r="7.39" transform="translate(10.296 15.28)"/>
    <circle id="Ellipse_456" data-name="Ellipse 456" class="cls-2" cx="6.187" cy="6.187" r="6.187" transform="translate(11.499 16.483)"/>
    <g id="Group_4313" data-name="Group 4313" transform="translate(22.197 27.009)">
      <path id="Path_680" data-name="Path 680" class="cls-4" d="M21.847,25.506h0a1.1,1.1,0,0,1-1.031,0l-7.562-8.421a1.1,1.1,0,0,1,0-1.031h0a1.1,1.1,0,0,1,1.031,0l7.562,8.421C22.191,24.819,22.019,25.162,21.847,25.506Z" transform="translate(-13.125 -15.925)"/>
    </g>
    <g id="Group_4314" data-name="Group 4314" transform="translate(13.389 22.842)">
      <path id="Path_681" data-name="Path 681" class="cls-4" d="M12.64,18.312a5.605,5.605,0,0,1-3.093-1.547A6.375,6.375,0,0,1,8,13.5h.859a4.242,4.242,0,0,0,1.2,2.75,4.872,4.872,0,0,0,2.578,1.375Z" transform="translate(-8 -13.5)"/>
    </g>
  </g>
</svg>
