<?xml version="1.0" encoding="utf-8"?>
<!-- Generator: Adobe Illustrator 21.1.0, SVG Export Plug-In . SVG Version: 6.00 Build 0)  -->
<svg version="1.1" id="Layer_1" xmlns="http://www.w3.org/2000/svg" xmlns:xlink="http://www.w3.org/1999/xlink" x="0px" y="0px"
	 viewBox="0 0 40 40" style="enable-background:new 0 0 40 40;" xml:space="preserve">
<style type="text/css">
	.st0{fill:#010101;}
</style>
<path class="st0" d="M36.6,10.9H3.4C2.1,10.9,1,9.8,1,8.4v0C1,7.1,2.1,6,3.4,6h33.1C37.9,6,39,7.1,39,8.4v0
	C39,9.8,37.9,10.9,36.6,10.9z"/>
<path class="st0" d="M36.6,22.3H3.4c-1.3,0-2.4-1.1-2.4-2.4v0c0-1.3,1.1-2.4,2.4-2.4h33.1c1.3,0,2.4,1.1,2.4,2.4v0
	C39,21.3,37.9,22.3,36.6,22.3z"/>
<path class="st0" d="M36.6,33.9H3.4c-1.3,0-2.4-1.1-2.4-2.4v0C1,30.1,2.1,29,3.4,29h33.1c1.3,0,2.4,1.1,2.4,2.4v0
	C39,32.8,37.9,33.9,36.6,33.9z"/>
</svg>
