<?xml version="1.0" encoding="utf-8"?>
<!-- Generator: Adobe Illustrator 20.0.0, SVG Export Plug-In . SVG Version: 6.00 Build 0)  -->
<!DOCTYPE svg PUBLIC "-//W3C//DTD SVG 1.1//EN" "http://www.w3.org/Graphics/SVG/1.1/DTD/svg11.dtd">
<svg version="1.1" id="Layer_1" xmlns="http://www.w3.org/2000/svg" xmlns:xlink="http://www.w3.org/1999/xlink" x="0px" y="0px"
	 viewBox="0 0 20 20" style="enable-background:new 0 0 20 20;" xml:space="preserve">
<style type="text/css">
	.st0{fill:#484B51;}
</style>
<g>
	<path class="st0" d="M14.2,0H5.9c-1,0-1.8,0.8-1.8,1.8v16.4c0,1,0.8,1.8,1.8,1.8h8.2c1,0,1.8-0.8,1.8-1.8V1.8C16,0.8,15.1,0,14.2,0
		z M9.1,1.2H11c0.2,0,0.3,0.1,0.3,0.3l0,0c0,0.2-0.1,0.3-0.3,0.3H9.1c-0.2,0-0.3-0.1-0.3-0.3l0,0C8.7,1.4,8.9,1.2,9.1,1.2z
		 M10.6,18.9c-0.9,0.7-1.9-0.3-1.2-1.2C10.3,17,11.3,18,10.6,18.9z M14,16.4H6.1c-0.2,0-0.3-0.1-0.3-0.3V3.9c0-0.2,0.1-0.3,0.3-0.3
		H14c0.2,0,0.3,0.1,0.3,0.3V16C14.3,16.2,14.2,16.4,14,16.4z"/>
</g>
</svg>
