<?xml version="1.0" encoding="utf-8"?>
<!-- Generator: Adobe Illustrator 21.1.0, SVG Export Plug-In . SVG Version: 6.00 Build 0)  -->
<!DOCTYPE svg PUBLIC "-//W3C//DTD SVG 1.1//EN" "http://www.w3.org/Graphics/SVG/1.1/DTD/svg11.dtd">
<svg version="1.1" id="Layer_1" xmlns="http://www.w3.org/2000/svg" xmlns:xlink="http://www.w3.org/1999/xlink" x="0px" y="0px"
	 viewBox="0 0 75.8 32.7" style="enable-background:new 0 0 75.8 32.7;" xml:space="preserve">
<style type="text/css">
	.st0{fill:#FFFFFF;}
</style>
<g id="Group_189" transform="translate(3975 4233)">
	<g id="Group_1623">
		<path id="Path_1988" class="st0" d="M-3900.6-4202h-0.2v-0.3h0.2c0.1,0,0.2,0,0.2,0.2C-3900.5-4202.1-3900.5-4202-3900.6-4202
			 M-3900.1-4202.2c0-0.3-0.2-0.5-0.6-0.5h-0.6v1.5h0.4v-0.5h0.2l0.2,0.5h0.4l-0.2-0.6C-3900.1-4201.8-3900.1-4202-3900.1-4202.2"/>
		<path id="Path_1989" class="st0" d="M-3900.7-4200.7c-0.6,0-1.1-0.5-1.1-1c0-0.1,0-0.1,0-0.2c0-0.6,0.4-1.2,1.1-1.2c0,0,0,0,0,0
			c0.7,0,1.2,0.5,1.2,1.2S-3900-4200.7-3900.7-4200.7 M-3900.7-4203.4c-0.8,0-1.5,0.7-1.5,1.5s0.7,1.5,1.5,1.5s1.5-0.7,1.5-1.5
			c0-0.8-0.5-1.5-1.3-1.5C-3900.6-4203.4-3900.6-4203.4-3900.7-4203.4"/>
		<g id="Group_1624">
			<path id="Path_1990" class="st0" d="M-3921.2-4211.1c1.3,0.4,2.2,1.6,2.2,3c0,1.7-1.3,2.7-3.5,2.7c-1.7-0.1-3.1-1.1-3.7-2.7
				l-0.3-0.8h-8.3c-1.2,2.1-3.5,3.4-5.9,3.5c-4.6,0-6.9-3.6-7.2-7.2h18.9v-0.7c0-1.4-0.1-2.8-0.4-4.2c0.7,2.1,2.3,3.8,4.4,4.6
				C-3923.8-4212.2-3922.5-4211.6-3921.2-4211.1 M-3940.9-4222.4c3.2-0.1,5.9,2.2,6.3,5.4h-12.9
				C-3946.8-4220.1-3944.1-4222.3-3940.9-4222.4 M-3907-4233h-4.9v5.8h-9.9c-4.6,0-7.9,3.1-7.9,7.3c0,0.5,0,1,0.1,1.5
				c-1.6-5.4-5.7-8.8-11.2-8.8c-6.8,0-11.9,5.3-12.4,12.4v-1.5c0-6-4.9-10.9-10.9-10.9c-6,0-10.9,4.9-10.9,10.9c0,0,0,0,0,0v15.6h5
				v-15.6c0-3.2,2.6-5.9,5.8-5.9c0,0,0.1,0,0.1,0c3.2,0,5.9,2.7,5.9,5.9v15.6h5v-12.1c0.4,7.2,5.7,12.5,12.5,12.5
				c4-0.1,7.7-2.1,10-5.3c1.5,3.3,4.8,5.4,8.4,5.3c4.4,0,8.8-2.8,8.8-8.1c0-3.2-1.9-5.8-5.2-7.3c-0.4-0.2-0.7-0.4-1.1-0.5l0,0
				c-0.4-0.2-0.8-0.4-1.2-0.6c-2.2-1-3.2-1.7-3.2-3.2c0.1-1.3,1.1-2.3,2.4-2.2c0,0,0.1,0,0.1,0h9.9v13.9c0,4.4,3.6,8,8,8v-5
				c-1.7,0-3.1-1.4-3.1-3.1v-13.9h4v-4.9h-4v-5.8H-3907z"/>
		</g>
	</g>
</g>
</svg>
