<svg xmlns="http://www.w3.org/2000/svg" viewBox="-9863 4064.837 21.163 21.163">
  <defs>
    <style>
      .cls-1 {
        fill: #60a5aa;
      }
    </style>
  </defs>
  <g id="Group_5" data-name="Group 5" transform="translate(-9863 4064.837)">
    <g id="Group_3" data-name="Group 3">
      <path id="Path_11" data-name="Path 11" class="cls-1" d="M10.582,1.411a9.171,9.171,0,1,1-9.171,9.171,9.153,9.153,0,0,1,9.171-9.171m0-1.411A10.582,10.582,0,1,0,21.163,10.582,10.567,10.567,0,0,0,10.582,0Z"/>
    </g>
    <g id="Group_4" data-name="Group 4" transform="translate(6.49 5.602)">
      <path id="Path_12" data-name="Path 12" class="cls-1" d="M9.271,9.958a2.612,2.612,0,0,1,.847-1.552c.917-.847,1.834-.494,2.046.705.141.847.494,1.764-.564,2.4-.353.212-.212.564-.071.917A5.29,5.29,0,0,0,12.8,14.4c.564.635,1.2,1.058,1.975.282.282-.282.635-.212.988.071a3.877,3.877,0,0,1,.635.494c.353.353.988.564.847,1.2a1.751,1.751,0,0,1-1.34,1.27,1.982,1.982,0,0,1-1.552-.071A9.193,9.193,0,0,1,9.2,10.8v-.494A.529.529,0,0,0,9.271,9.958Z" transform="translate(-9.2 -7.941)"/>
    </g>
  </g>
</svg>
