<?xml version="1.0" encoding="utf-8"?>
<!-- Generator: Adobe Illustrator 20.0.0, SVG Export Plug-In . SVG Version: 6.00 Build 0)  -->
<!DOCTYPE svg PUBLIC "-//W3C//DTD SVG 1.1//EN" "http://www.w3.org/Graphics/SVG/1.1/DTD/svg11.dtd">
<svg version="1.1" id="Layer_4" xmlns="http://www.w3.org/2000/svg" xmlns:xlink="http://www.w3.org/1999/xlink" x="0px" y="0px"
	 viewBox="0 0 11.5 9.7" style="enable-background:new 0 0 11.5 9.7;" xml:space="preserve">
<style type="text/css">
	.st0{fill:#60A5AA;}
</style>
<g>
	<path class="st0" d="M11.3,1.4v3.4c0,0.1,0,0.2-0.1,0.3c-0.1,0.1-0.2,0.1-0.3,0.1L4,6.1c0,0,0,0.1,0,0.1c0,0.1,0,0.1,0,0.2
		s0,0.1,0,0.1C4.1,6.6,4,6.8,3.9,7h6.2c0.1,0,0.2,0,0.3,0.1c0.1,0.1,0.1,0.2,0.1,0.3c0,0.1,0,0.2-0.1,0.3c-0.1,0.1-0.2,0.1-0.3,0.1
		H3.2c-0.1,0-0.2,0-0.3-0.1C2.8,7.6,2.8,7.5,2.8,7.4c0-0.1,0-0.2,0.1-0.3C2.9,7,3,6.9,3,6.8c0.1-0.2,0.1-0.2,0.1-0.3L2,1H0.6
		C0.5,1,0.4,1,0.3,0.9C0.2,0.8,0.2,0.7,0.2,0.6s0-0.2,0.1-0.3c0.1-0.1,0.2-0.1,0.3-0.1h1.7c0.1,0,0.1,0,0.2,0c0.1,0,0.1,0.1,0.1,0.1
		c0,0,0.1,0.1,0.1,0.2s0,0.1,0.1,0.2c0,0,0,0.1,0,0.2c0,0.1,0,0.1,0,0.2h8c0.1,0,0.2,0,0.3,0.1S11.3,1.3,11.3,1.4z M4.2,8.1
		c0.2,0.2,0.3,0.4,0.3,0.6S4.4,9.1,4.2,9.3C4.1,9.5,3.9,9.6,3.6,9.6C3.4,9.6,3.2,9.5,3,9.3C2.9,9.1,2.8,8.9,2.8,8.7S2.9,8.3,3,8.1
		c0.2-0.2,0.4-0.3,0.6-0.3C3.9,7.8,4.1,7.9,4.2,8.1z M10.2,8.1c0.2,0.2,0.3,0.4,0.3,0.6s-0.1,0.4-0.3,0.6c-0.2,0.2-0.4,0.3-0.6,0.3
		C9.4,9.6,9.2,9.5,9,9.3C8.9,9.1,8.8,8.9,8.8,8.7S8.9,8.3,9,8.1c0.2-0.2,0.4-0.3,0.6-0.3C9.9,7.8,10.1,7.9,10.2,8.1z"/>
</g>
</svg>
