<?xml version="1.0" encoding="utf-8"?>
<!-- Generator: Adobe Illustrator 20.0.0, SVG Export Plug-In . SVG Version: 6.00 Build 0)  -->
<!DOCTYPE svg PUBLIC "-//W3C//DTD SVG 1.1//EN" "http://www.w3.org/Graphics/SVG/1.1/DTD/svg11.dtd">
<svg version="1.1" id="Layer_1" xmlns="http://www.w3.org/2000/svg" xmlns:xlink="http://www.w3.org/1999/xlink" x="0px" y="0px"
	 viewBox="0 0 120 118.5" style="enable-background:new 0 0 120 118.5;" xml:space="preserve">
<style type="text/css">
	.st0{fill:#AFACAE;}
	.st1{fill:none;stroke:#3A3D42;stroke-width:1.5;stroke-linejoin:round;stroke-miterlimit:10;}
	.st2{fill:#393C41;stroke:#3A3D42;stroke-width:1.5;stroke-miterlimit:10;}
	.st3{fill:#E27225;stroke:#3A3D42;stroke-width:1.5;stroke-miterlimit:10;}
	.st4{fill:none;stroke:#FFFFFF;stroke-width:1.5;stroke-linecap:round;stroke-miterlimit:10;}
	.st5{fill:#F5CEAF;stroke:#3A3D42;stroke-width:1.5;stroke-miterlimit:10;}
	.st6{fill:none;stroke:#3A3D42;stroke-width:1.5;stroke-linecap:round;stroke-miterlimit:10;}
	.st7{fill:#393C41;stroke:#393C41;stroke-width:1.5;stroke-miterlimit:10;}
	.st8{fill:#FFFFFF;}
</style>
<ellipse class="st0" cx="60.3" cy="110.8" rx="42.4" ry="4.4"/>
<path class="st1" d="M53.2,7.5c6.4,11.9,21.3,55.2-5.5,91.2"/>
<path class="st1" d="M72.8,98.7C46.1,62.7,61,19.4,67.3,7.5"/>
<path class="st2" d="M50,98.7c0-5.7,4.6-10.3,10.3-10.3S70.6,93,70.6,98.7"/>
<path class="st3" d="M38.1,59.2c0,9.5-7.7,17.2-17.2,17.2S3.7,68.7,3.7,59.2H38.1z"/>
<path class="st4" d="M34.8,62.2c-1.4,6.4-7.1,11.2-13.9,11.2"/>
<path class="st3" d="M117.2,59.2c0,9.5-7.7,17.2-17.2,17.2s-17.2-7.7-17.2-17.2H117.2z"/>
<rect x="26.5" y="98.7" class="st5" width="67.6" height="11.8"/>
<g>
	<line class="st6" x1="31.4" y1="102.5" x2="31.4" y2="107.2"/>
	<line class="st6" x1="36.6" y1="102.5" x2="36.6" y2="107.2"/>
	<line class="st6" x1="41.9" y1="102.5" x2="41.9" y2="107.2"/>
	<line class="st6" x1="47.1" y1="102.5" x2="47.1" y2="107.2"/>
	<line class="st6" x1="52.4" y1="102.5" x2="52.4" y2="107.2"/>
	<line class="st6" x1="57.7" y1="102.5" x2="57.7" y2="107.2"/>
	<line class="st6" x1="62.9" y1="102.5" x2="62.9" y2="107.2"/>
	<line class="st6" x1="68.2" y1="102.5" x2="68.2" y2="107.2"/>
	<line class="st6" x1="73.4" y1="102.5" x2="73.4" y2="107.2"/>
	<line class="st6" x1="78.7" y1="102.5" x2="78.7" y2="107.2"/>
	<line class="st6" x1="84" y1="102.5" x2="84" y2="107.2"/>
	<line class="st6" x1="89.2" y1="102.5" x2="89.2" y2="107.2"/>
</g>
<polygon class="st1" points="100,19.6 20.6,19.6 60.3,2.8 "/>
<circle class="st7" cx="60.3" cy="11.3" r="7.9"/>
<polygon class="st1" points="20.6,19.4 3.7,59.2 38.1,59.2 "/>
<polygon class="st1" points="99.7,19.4 82.8,59.2 117.2,59.2 "/>
<path class="st4" d="M113.1,62.2c-1.4,6.4-7.1,11.2-13.9,11.2"/>
<circle class="st8" cx="95.1" cy="72.3" r="1"/>
<circle class="st8" cx="16.9" cy="72.3" r="1"/>
</svg>
