<?xml version="1.0" encoding="utf-8"?>
<!-- Generator: Adobe Illustrator 20.0.0, SVG Export Plug-In . SVG Version: 6.00 Build 0)  -->
<!DOCTYPE svg PUBLIC "-//W3C//DTD SVG 1.1//EN" "http://www.w3.org/Graphics/SVG/1.1/DTD/svg11.dtd">
<svg version="1.1" id="Layer_1" xmlns="http://www.w3.org/2000/svg" xmlns:xlink="http://www.w3.org/1999/xlink" x="0px" y="0px"
	 viewBox="0 0 20 20" style="enable-background:new 0 0 20 20;" xml:space="preserve">
<style type="text/css">
	.st0{fill:#484B52;}
</style>
<path class="st0" d="M17.8,0.3c-0.4,0-0.8,0.1-1.2,0.4c-5.5,4-9.9,9.5-13.8,14.3c-0.8,1.4,0,2.1,1.3,1.4c5.1-3.6,10.7-7.6,15.2-12.8
	C20.6,2,19.4,0.2,17.8,0.3z M1.8,0.3c-0.2,0-0.4,0.1-0.6,0.2L0.5,1.2c-0.2,0.2-0.2,0.5,0,0.6l6.9,5.8c1.4-1.5,2.7-2.9,4.3-4.3L2,0.3
	C1.9,0.3,1.9,0.3,1.8,0.3z M17.5,1c0.4,0,0.9,0.1,1.2,0.4c0.6,0.6,0.5,1.7-0.2,2.4c0.2-1-1.1-2.4-2.2-2.3C16.6,1.2,17.1,1,17.5,1z
	 M16.2,8.3c-1.5,1.4-3,2.7-4.6,3.9l5.2,7.3c0.1,0.2,0.4,0.3,0.7,0.1l0.7-0.7c0.3-0.3,0.3-0.5,0.2-0.8L16.2,8.3z M1.1,11.3
	c-0.2,0-0.3,0.1-0.5,0.3L0.3,12c-0.2,0.2-0.1,0.4,0,0.6l2.1,1.6c0.8-1.1,1.1-1.4,2-2.4l-3.1-0.4C1.2,11.3,1.1,11.3,1.1,11.3z
	 M7.4,15c-1.1,0.8-1.5,1-2.6,1.8L6.2,19c0.2,0.2,0.4,0.3,0.6,0.1l0.4-0.3c0.2-0.2,0.3-0.4,0.3-0.7L7.4,15z"/>
</svg>
